<svg xmlns="http://www.w3.org/2000/svg" xmlns:xlink="http://www.w3.org/1999/xlink" width="108" height="108" viewBox="0 0 108 108">
  <defs>
    <filter id="Path_904820" x="0" y="0" width="108" height="108" filterUnits="userSpaceOnUse">
      <feOffset dy="3" input="SourceAlpha"/>
      <feGaussianBlur stdDeviation="3" result="blur"/>
      <feFlood flood-opacity="0.161"/>
      <feComposite operator="in" in2="blur"/>
      <feComposite in="SourceGraphic"/>
    </filter>
  </defs>
  <g id="Group_1163397" data-name="Group 1163397" transform="translate(-195 -1220)">
    <g id="Group_1163320" data-name="Group 1163320">
      <g id="Group_1163035" data-name="Group 1163035" transform="translate(35 -726)">
        <g id="Group_1160531" data-name="Group 1160531" transform="translate(169 1952)">
          <g id="Icono">
            <g transform="matrix(1, 0, 0, 1, -9, -6)" filter="url(#Path_904820)">
              <g id="Path_904820-2" data-name="Path 904820" transform="translate(9 6)" fill="#ecf4fa">
                <path d="M 45 88.5 C 39.12687683105469 88.5 33.43022537231445 87.35007476806641 28.06830024719238 85.08217620849609 C 22.88852500915527 82.89131164550781 18.23629951477051 79.75458526611328 14.2408504486084 75.75914764404297 C 10.24541282653809 71.76370239257812 7.108687400817871 67.11147308349609 4.917825222015381 61.93170166015625 C 2.649924993515015 56.56977462768555 1.5 50.87312316894531 1.5 45 C 1.5 39.12687683105469 2.649924993515015 33.43022537231445 4.917825222015381 28.06830024719238 C 7.108687400817871 22.88852500915527 10.24541282653809 18.23629951477051 14.2408504486084 14.2408504486084 C 18.23629951477051 10.24541282653809 22.88852500915527 7.108687400817871 28.06830024719238 4.917825222015381 C 33.43022537231445 2.649924993515015 39.12687683105469 1.5 45 1.5 C 50.87312316894531 1.5 56.56977462768555 2.649924993515015 61.93170166015625 4.917825222015381 C 67.11147308349609 7.108687400817871 71.76370239257812 10.24541282653809 75.75914764404297 14.2408504486084 C 79.75458526611328 18.23629951477051 82.89131164550781 22.88852500915527 85.08217620849609 28.06830024719238 C 87.35007476806641 33.43022537231445 88.5 39.12687683105469 88.5 45 C 88.5 50.87312316894531 87.35007476806641 56.56977462768555 85.08217620849609 61.93170166015625 C 82.89131164550781 67.11147308349609 79.75458526611328 71.76370239257812 75.75914764404297 75.75914764404297 C 71.76370239257812 79.75458526611328 67.11147308349609 82.89131164550781 61.93170166015625 85.08217620849609 C 56.56977462768555 87.35007476806641 50.87312316894531 88.5 45 88.5 Z" stroke="none"/>
                <path d="M 45 3 C 39.32871246337891 3 33.82865524291992 4.110054016113281 28.65262985229492 6.299339294433594 C 23.65165710449219 8.414573669433594 19.15968322753906 11.44334411621094 15.301513671875 15.301513671875 C 11.44334411621094 19.15968322753906 8.414573669433594 23.65165710449219 6.299339294433594 28.65262985229492 C 4.110054016113281 33.82865524291992 3 39.32871246337891 3 45 C 3 50.67128753662109 4.110054016113281 56.17134475708008 6.299339294433594 61.34737396240234 C 8.414573669433594 66.34834289550781 11.44334411621094 70.84031677246094 15.301513671875 74.698486328125 C 19.15968322753906 78.55665588378906 23.65165710449219 81.58542633056641 28.65262985229492 83.70066070556641 C 33.82865524291992 85.88994598388672 39.32871246337891 87 45 87 C 50.67128753662109 87 56.17134475708008 85.88994598388672 61.34737396240234 83.70066070556641 C 66.34834289550781 81.58542633056641 70.84031677246094 78.55665588378906 74.698486328125 74.698486328125 C 78.55665588378906 70.84031677246094 81.58542633056641 66.34834289550781 83.70066070556641 61.34737396240234 C 85.88994598388672 56.17134475708008 87 50.67128753662109 87 45 C 87 39.32871246337891 85.88994598388672 33.82865524291992 83.70066070556641 28.65262985229492 C 81.58542633056641 23.65165710449219 78.55665588378906 19.15968322753906 74.698486328125 15.301513671875 C 70.84031677246094 11.44334411621094 66.34834289550781 8.414573669433594 61.34737396240234 6.299339294433594 C 56.17134475708008 4.110054016113281 50.67128753662109 3 45 3 M 45 0 C 69.85281372070312 0 90 20.14718627929688 90 45 C 90 69.85281372070312 69.85281372070312 90 45 90 C 20.14718627929688 90 0 69.85281372070312 0 45 C 0 20.14718627929688 20.14718627929688 0 45 0 Z" stroke="none" fill="#2a5673"/>
              </g>
            </g>
          </g>
        </g>
      </g>
      <g id="inteligencia-emocional_1_" data-name="inteligencia-emocional (1)" transform="translate(215 1228.096)">
        <g id="Group_1163310" data-name="Group 1163310" transform="translate(1.009 10.913)">
          <g id="Group_1163309" data-name="Group 1163309">
            <g id="Group_1163302" data-name="Group 1163302" transform="translate(8.604)">
              <path id="Path_998074" data-name="Path 998074" d="M73.384,66.92a10.4,10.4,0,0,1,9.277,15.1,24.765,24.765,0,0,0,3.808,2.052,10.4,10.4,0,0,1,19.62,0,24.772,24.772,0,0,0,3.808-2.052A10.389,10.389,0,0,1,120.441,67a24.83,24.83,0,1,0-48.324,0A10.469,10.469,0,0,1,73.384,66.92Z" transform="translate(-71.449 -33.871)" fill="#ffeee6"/>
              <g id="Group_1163299" data-name="Group 1163299" transform="translate(26.082 2.591)">
                <path id="Path_998075" data-name="Path 998075" d="M283.231,60.521a24.805,24.805,0,0,1-1.216,7.692,10.489,10.489,0,0,1,4.933-1.226,10.608,10.608,0,0,1,1.3.083A24.853,24.853,0,0,0,265.3,36.664,24.84,24.84,0,0,1,283.231,60.521Z" transform="translate(-265.303 -36.664)" fill="#ffdfcf"/>
              </g>
              <g id="Group_1163301" data-name="Group 1163301" transform="translate(10.515)">
                <path id="Path_998076" data-name="Path 998076" d="M208.856,24.062h2.573a10.751,10.751,0,0,1,5.843,1.724V24.437a7.033,7.033,0,0,0-7.033-7.033h-.192a7.033,7.033,0,0,0-7.033,7.033v1.349a10.753,10.753,0,0,1,5.843-1.724Z" transform="translate(-195.827 -17.404)" fill="#554e56"/>
                <g id="Group_1163300" data-name="Group 1163300" transform="translate(14.265)">
                  <path id="Path_998077" data-name="Path 998077" d="M255.777,17.4h-.145a7.013,7.013,0,0,1,2.245,5.15V24.1a10.763,10.763,0,0,1,4.933,1.684V24.437A7.033,7.033,0,0,0,255.777,17.4Z" transform="translate(-255.632 -17.404)" fill="#433f43"/>
                </g>
                <path id="Path_998078" data-name="Path 998078" d="M165.146,81.032h1.462l.012-.121a8.6,8.6,0,0,1,.187-1.113,1.441,1.441,0,0,1,1.663-1.1,9.947,9.947,0,0,0,1.773.159,9.838,9.838,0,0,0,8.3-4.526,1.445,1.445,0,0,1,1.733-.561,8.542,8.542,0,0,1,5.454,7.141l.012.121H187.2a3.134,3.134,0,0,1,1.382.32V77.51a11.267,11.267,0,0,0-11.123-11.4h-2.573a11.266,11.266,0,0,0-11.123,11.4v3.842A3.131,3.131,0,0,1,165.146,81.032Z" transform="translate(-161.859 -59.554)" fill="#685e68"/>
                <path id="Path_998079" data-name="Path 998079" d="M275.148,74.455a8.534,8.534,0,0,1,4.529,6.72l.012.121h1.462a3.133,3.133,0,0,1,1.382.32V77.774a11.293,11.293,0,0,0-10.214-11.363,11.523,11.523,0,0,1,2.829,7.6Z" transform="translate(-255.809 -59.817)" fill="#554e56"/>
                <path id="Path_998080" data-name="Path 998080" d="M153.448,300.187a10.337,10.337,0,0,1-1.127,4.7,24.78,24.78,0,0,0,3.808,2.053,10.4,10.4,0,0,1,19.62,0,24.761,24.761,0,0,0,3.808-2.053,10.377,10.377,0,0,1,.382-10.091,8.409,8.409,0,0,0-3.7-.855H155.642a8.409,8.409,0,0,0-3.7.855A10.341,10.341,0,0,1,153.448,300.187Z" transform="translate(-151.625 -256.734)" fill="#af66da"/>
                <path id="Path_998081" data-name="Path 998081" d="M317.841,346.741a24.764,24.764,0,0,0,3.808-2.053,10.338,10.338,0,0,1-1.127-4.7c0-.02,0-.039,0-.059a24.95,24.95,0,0,1-4.4,3.738,10.393,10.393,0,0,1,1.721,3.074Z" transform="translate(-293.717 -296.536)" fill="#9857bd"/>
                <path id="Path_998082" data-name="Path 998082" d="M203.245,282.5a10.366,10.366,0,0,1,9.4,0,7.455,7.455,0,0,0,2.769-5.8v-1.378h-3.246a.528.528,0,0,1-.528-.528v-2.366a9.588,9.588,0,0,1-7.393,0v2.366a.528.528,0,0,1-.528.528h-3.246V276.7A7.455,7.455,0,0,0,203.245,282.5Z" transform="translate(-193.632 -238.116)" fill="#a44f3e"/>
                <path id="Path_998083" data-name="Path 998083" d="M326.7,176.045h-1.477a8.437,8.437,0,0,1,.048.888v3.221a9.577,9.577,0,0,1-.322,2.464H326.7a3.287,3.287,0,0,0,0-6.574Z" transform="translate(-301.36 -154.701)" fill="#a44f3e"/>
                <path id="Path_998084" data-name="Path 998084" d="M154.322,180.156v-3.221a8.614,8.614,0,0,1,.048-.888h-1.477a3.287,3.287,0,1,0,0,6.574h1.751A9.576,9.576,0,0,1,154.322,180.156Z" transform="translate(-149.606 -154.702)" fill="#bb5d4c"/>
                <path id="Path_998085" data-name="Path 998085" d="M197.537,121.452a1.579,1.579,0,0,0-1.894.614,9.747,9.747,0,0,1-9.934,4.308,1.584,1.584,0,0,0-1.818,1.2,8.711,8.711,0,0,0-.236,2.018v3.222a9.733,9.733,0,0,0,19.467,0v-3.221A8.726,8.726,0,0,0,197.537,121.452Z" transform="translate(-179.074 -107.361)" fill="#c96e59"/>
                <path id="Path_998086" data-name="Path 998086" d="M257.8,125.074v11.909a9.734,9.734,0,0,1-5.525,8.779q.249.013.5.013a9.733,9.733,0,0,0,9.733-9.733V132.82A8.722,8.722,0,0,0,257.8,125.074Z" transform="translate(-238.463 -110.588)" fill="#bb5d4c"/>
              </g>
            </g>
            <g id="Group_1163307" data-name="Group 1163307" transform="translate(0 32.914)">
              <g id="Group_1163303" data-name="Group 1163303" transform="translate(45.791)">
                <circle id="Ellipse_12493" data-name="Ellipse 12493" cx="10.538" cy="10.538" r="10.538" fill="#ffe177"/>
                <path id="Path_998087" data-name="Path 998087" d="M387.126,264.7a10.538,10.538,0,0,1-9.22,18.477,10.537,10.537,0,1,0,9.22-18.477Z" transform="translate(-373.862 -264.346)" fill="#ffd15b"/>
              </g>
              <g id="Group_1163306" data-name="Group 1163306">
                <circle id="Ellipse_12494" data-name="Ellipse 12494" cx="10.538" cy="10.538" r="10.538" fill="#fe4fb7"/>
                <path id="Path_998088" data-name="Path 998088" d="M46.782,264.7a10.538,10.538,0,0,1-9.22,18.477,10.537,10.537,0,1,0,9.22-18.477Z" transform="translate(-33.517 -264.346)" fill="#fe2aa8"/>
                <g id="Group_1163304" data-name="Group 1163304" transform="translate(4.726 6.828)">
                  <path id="Path_998089" data-name="Path 998089" d="M47.065,313.552l1.372,1.372,1.372-1.372a2.6,2.6,0,1,1,3.679,3.679l-4.5,4.5a.775.775,0,0,1-1.1,0l-4.5-4.5a2.6,2.6,0,0,1,3.679-3.679Z" transform="translate(-42.624 -312.791)" fill="#fff"/>
                </g>
                <g id="Group_1163305" data-name="Group 1163305" transform="translate(8.655 6.828)">
                  <path id="Path_998090" data-name="Path 998090" d="M78.761,313.552a2.6,2.6,0,0,0-2.581-.654,2.6,2.6,0,0,1-.245,3.391L71.827,320.4l1.336,1.336a.775.775,0,0,0,1.1,0l4.5-4.5A2.6,2.6,0,0,0,78.761,313.552Z" transform="translate(-71.827 -312.79)" fill="#f3f0f3"/>
                </g>
              </g>
            </g>
            <g id="Group_1163308" data-name="Group 1163308" transform="translate(22.895 43.126)">
              <circle id="Ellipse_12495" data-name="Ellipse 12495" cx="10.538" cy="10.538" r="10.538" transform="translate(0 0)" fill="#dff6fd"/>
              <path id="Path_998091" data-name="Path 998091" d="M216.954,340.6a10.538,10.538,0,0,1-9.22,18.477,10.537,10.537,0,1,0,9.22-18.477Z" transform="translate(-203.69 -340.245)" fill="#c8effe"/>
              <path id="Path_998092" data-name="Path 998092" d="M216.629,438.237H213.27a4.7,4.7,0,0,0-4.7,4.7v.727a10.532,10.532,0,0,0,12.763,0v-.727A4.7,4.7,0,0,0,216.629,438.237Z" transform="translate(-204.411 -424.743)" fill="#05e39c"/>
              <path id="Path_998093" data-name="Path 998093" d="M219.8,447.36a10.547,10.547,0,0,1-11.229,4.144v.057a10.532,10.532,0,0,0,12.763,0v-.727A4.69,4.69,0,0,0,219.8,447.36Z" transform="translate(-204.411 -432.639)" fill="#0ed290"/>
              <circle id="Ellipse_12496" data-name="Ellipse 12496" cx="4.165" cy="4.165" r="4.165" transform="translate(6.373 6.373)" fill="#ffdfcf"/>
              <path id="Path_998094" data-name="Path 998094" d="M239,385.313c-.061,0-.122,0-.182,0a4.164,4.164,0,0,1-2.461,7.379A4.165,4.165,0,1,0,239,385.313Z" transform="translate(-228.459 -378.939)" fill="#ffcebf"/>
            </g>
          </g>
        </g>
        <g id="Group_1163311" data-name="Group 1163311" transform="translate(0 9.904)">
          <path id="Path_998095" data-name="Path 998095" d="M221.044,177.778v-.721a1.009,1.009,0,1,0-2.018,0v.721a1.009,1.009,0,1,0,2.018,0Z" transform="translate(-189.558 -153.695)"/>
          <path id="Path_998096" data-name="Path 998096" d="M278.983,178.787a1.009,1.009,0,0,0,1.009-1.009v-.721a1.009,1.009,0,1,0-2.018,0v.721A1.009,1.009,0,0,0,278.983,178.787Z" transform="translate(-240.575 -153.695)"/>
          <path id="Path_998097" data-name="Path 998097" d="M238.726,184.211l.778.37a1.009,1.009,0,0,0,.867-1.822l-.778-.37a.237.237,0,0,1-.008-.423,2.533,2.533,0,0,0,1.361-2.25V179.2a1.009,1.009,0,1,0-2.018,0v.516a.52.52,0,0,1-.28.462,2.255,2.255,0,0,0,.077,4.033Z" transform="translate(-205.495 -155.549)"/>
          <path id="Path_998098" data-name="Path 998098" d="M236.281,234.27a1.009,1.009,0,1,0-.963-1.774,4.266,4.266,0,0,1-4.084,0,1.009,1.009,0,1,0-.963,1.774,6.275,6.275,0,0,0,6.01,0Z" transform="translate(-198.833 -202.442)"/>
          <path id="Path_998099" data-name="Path 998099" d="M395.616,308.77a1.009,1.009,0,0,0,1.009-1.009v-1a1.009,1.009,0,1,0-2.018,0v1A1.009,1.009,0,0,0,395.616,308.77Z" transform="translate(-341.516 -265.951)"/>
          <path id="Path_998100" data-name="Path 998100" d="M443.747,305.756a1.009,1.009,0,0,0-1.009,1.009v1a1.009,1.009,0,1,0,2.018,0v-1A1.009,1.009,0,0,0,443.747,305.756Z" transform="translate(-383.171 -265.951)"/>
          <path id="Path_998101" data-name="Path 998101" d="M403.429,345.284a1.01,1.01,0,0,0-1.1.906,2.015,2.015,0,0,1-4.011,0,1.009,1.009,0,0,0-2.008.2,4.033,4.033,0,0,0,8.028,0A1.009,1.009,0,0,0,403.429,345.284Z" transform="translate(-342.983 -300.157)"/>
          <path id="Path_998102" data-name="Path 998102" d="M47.71,306.348a3.611,3.611,0,0,0-5.106,0l-.659.659-.659-.659a3.61,3.61,0,0,0-5.106,5.106l4.5,4.5a1.784,1.784,0,0,0,2.523,0l4.5-4.5a3.611,3.611,0,0,0,0-5.106Zm-1.427,3.679-4.337,4.337-4.337-4.337a1.592,1.592,0,0,1,2.252-2.251l1.372,1.372a1.009,1.009,0,0,0,1.427,0l1.372-1.372a1.592,1.592,0,1,1,2.251,2.251Z" transform="translate(-30.398 -265.549)"/>
          <path id="Path_998103" data-name="Path 998103" d="M59.836,43.093a26.039,26.039,0,0,0,.446-4.79,25.57,25.57,0,0,0-5.559-16.012,25.985,25.985,0,0,0-13.6-8.952A8.037,8.037,0,0,0,34.539,9.9h-.192A8.037,8.037,0,0,0,27.76,13.34,25.979,25.979,0,0,0,11.984,25.521a1.009,1.009,0,1,0,1.753,1A23.981,23.981,0,0,1,26.6,15.809a8.018,8.018,0,0,0-.29,2.137v.685A12.491,12.491,0,0,0,21.024,28.87v3.107a4.295,4.295,0,0,0,2.391,7.863h.865a10.8,10.8,0,0,0,5.457,6.182V47.11H24.145a9.381,9.381,0,0,0-3.2.559,11.538,11.538,0,0,0-9.4-4.85c-.166,0-.33.006-.494.013a23.936,23.936,0,0,1,.826-12.182A1.009,1.009,0,0,0,9.968,30,25.941,25.941,0,0,0,9.05,43.093,11.546,11.546,0,1,0,21.293,60.548c.648.383,1.314.738,1.992,1.064a11.459,11.459,0,0,0-.359,2.154,1.009,1.009,0,0,0,2.013.14A9.528,9.528,0,1,1,41.652,70.8a5.688,5.688,0,0,0-2.771-3.566,5.174,5.174,0,1,0-8.877,0,5.689,5.689,0,0,0-2.774,3.58,9.594,9.594,0,0,1-1.636-2.7,1.009,1.009,0,0,0-1.874.75A11.547,11.547,0,0,0,45.6,61.611c.678-.325,1.344-.68,1.991-1.063A11.544,11.544,0,1,0,59.836,43.093ZM34.443,61.421a3.156,3.156,0,1,1-3.156,3.156,3.159,3.159,0,0,1,3.156-3.156ZM29.07,72.458v-.222a3.679,3.679,0,0,1,2.373-3.446,5.157,5.157,0,0,0,6,0,3.679,3.679,0,0,1,2.373,3.446v.207a9.541,9.541,0,0,1-10.745.015Zm5.277-60.536h.192a6.031,6.031,0,0,1,6,5.554,11.831,11.831,0,0,0-4.814-1.02H33.157a11.831,11.831,0,0,0-4.814,1.02A6.031,6.031,0,0,1,34.347,11.922ZM23.042,28.87a10.269,10.269,0,0,1,10.114-10.4h2.573a10.27,10.27,0,0,1,10.114,10.4v2.4c-.123-.011-.247-.017-.373-.017h-.476a9.806,9.806,0,0,0-6.04-7.186,2.6,2.6,0,0,0-3.106,1.008,8.7,8.7,0,0,1-7.337,4,8.8,8.8,0,0,1-1.568-.141,2.592,2.592,0,0,0-2.98,1.961c-.028.118-.053.236-.076.355h-.472c-.126,0-.25.007-.373.017v-2.4Zm22.143,7.5v-3.1h.285a2.278,2.278,0,1,1,0,4.556h-.386A10.8,10.8,0,0,0,45.185,36.367Zm-21.77,1.455a2.278,2.278,0,0,1,0-4.556H23.7v3.1a10.792,10.792,0,0,0,.1,1.455h-.386Zm2.3-1.455V33.145a7.715,7.715,0,0,1,.209-1.785.579.579,0,0,1,.557-.451.561.561,0,0,1,.1.009,10.83,10.83,0,0,0,1.929.173,10.709,10.709,0,0,0,9.033-4.927.571.571,0,0,1,.683-.219h0a7.764,7.764,0,0,1,4.939,7.2v3.221a8.724,8.724,0,0,1-17.449,0ZM11.548,63.895a9.529,9.529,0,1,1,9.529-9.529A9.54,9.54,0,0,1,11.548,63.895Zm12.433-4.188q-.9-.439-1.755-.953a11.521,11.521,0,0,0-.234-9.308,7.4,7.4,0,0,1,2.153-.319h1.818V49.5A8.459,8.459,0,0,0,28,55.01,11.641,11.641,0,0,0,23.981,59.707Zm5.838-5.7A6.447,6.447,0,0,1,27.982,49.5v-.369h2.237a1.539,1.539,0,0,0,1.537-1.537v-.822a10.775,10.775,0,0,0,5.375,0v.822a1.539,1.539,0,0,0,1.537,1.537H40.9V49.5A6.447,6.447,0,0,1,39.071,54a11.481,11.481,0,0,0-9.252,0Zm15.09,5.7A11.623,11.623,0,0,0,40.891,55a8.46,8.46,0,0,0,2.032-5.5v-.369H44.74a7.4,7.4,0,0,1,2.153.319,11.521,11.521,0,0,0-.234,9.308q-.854.511-1.751.951Zm12.43,4.19a9.526,9.526,0,0,1-7.222-15.742,1.009,1.009,0,0,0-1.529-1.317q-.346.4-.651.831a9.383,9.383,0,0,0-3.2-.557H39.148V46.021a10.8,10.8,0,0,0,5.457-6.182h.865a4.295,4.295,0,0,0,2.391-7.863V28.87a12.491,12.491,0,0,0-5.281-10.239v-.685a8.016,8.016,0,0,0-.291-2.137,24,24,0,0,1,10.85,7.734A23.571,23.571,0,0,1,58.264,38.3a24.018,24.018,0,0,1-.432,4.528c-.164-.007-.328-.013-.494-.013a11.47,11.47,0,0,0-4.585.948,1.009,1.009,0,1,0,.8,1.852,9.53,9.53,0,1,1,3.783,18.277Z" transform="translate(0 -9.904)"/>
        </g>
      </g>
    </g>
  </g>
</svg>
