<svg xmlns="http://www.w3.org/2000/svg" xmlns:xlink="http://www.w3.org/1999/xlink" width="108" height="108" viewBox="0 0 108 108">
  <defs>
    <filter id="Path_904820" x="0" y="0" width="108" height="108" filterUnits="userSpaceOnUse">
      <feOffset dy="3" input="SourceAlpha"/>
      <feGaussianBlur stdDeviation="3" result="blur"/>
      <feFlood flood-opacity="0.161"/>
      <feComposite operator="in" in2="blur"/>
      <feComposite in="SourceGraphic"/>
    </filter>
  </defs>
  <g id="Group_1163410" data-name="Group 1163410" transform="translate(-182 -6975.813)">
    <g id="Group_1163353" data-name="Group 1163353" transform="translate(0 92.813)">
      <g id="Group_1163074" data-name="Group 1163074" transform="translate(-2 3011)">
        <g id="Group_1160557" data-name="Group 1160557" transform="translate(193 3878)">
          <g id="Icono">
            <g transform="matrix(1, 0, 0, 1, -9, -6)" filter="url(#Path_904820)">
              <g id="Path_904820-2" data-name="Path 904820" transform="translate(9 6)" fill="#edf3fc">
                <path d="M 45 88.5 C 39.12687683105469 88.5 33.43022537231445 87.35007476806641 28.06830024719238 85.08217620849609 C 22.88852500915527 82.89131164550781 18.23629951477051 79.75458526611328 14.2408504486084 75.75914764404297 C 10.24541282653809 71.76370239257812 7.108687400817871 67.11147308349609 4.917825222015381 61.93170166015625 C 2.649924993515015 56.56977462768555 1.5 50.87312316894531 1.5 45 C 1.5 39.12687683105469 2.649924993515015 33.43022537231445 4.917825222015381 28.06830024719238 C 7.108687400817871 22.88852500915527 10.24541282653809 18.23629951477051 14.2408504486084 14.2408504486084 C 18.23629951477051 10.24541282653809 22.88852500915527 7.108687400817871 28.06830024719238 4.917825222015381 C 33.43022537231445 2.649924993515015 39.12687683105469 1.5 45 1.5 C 50.87312316894531 1.5 56.56977462768555 2.649924993515015 61.93170166015625 4.917825222015381 C 67.11147308349609 7.108687400817871 71.76370239257812 10.24541282653809 75.75914764404297 14.2408504486084 C 79.75458526611328 18.23629951477051 82.89131164550781 22.88852500915527 85.08217620849609 28.06830024719238 C 87.35007476806641 33.43022537231445 88.5 39.12687683105469 88.5 45 C 88.5 50.87312316894531 87.35007476806641 56.56977462768555 85.08217620849609 61.93170166015625 C 82.89131164550781 67.11147308349609 79.75458526611328 71.76370239257812 75.75914764404297 75.75914764404297 C 71.76370239257812 79.75458526611328 67.11147308349609 82.89131164550781 61.93170166015625 85.08217620849609 C 56.56977462768555 87.35007476806641 50.87312316894531 88.5 45 88.5 Z" stroke="none"/>
                <path d="M 45 3 C 39.32871246337891 3 33.82865524291992 4.110054016113281 28.65262985229492 6.299339294433594 C 23.65165710449219 8.414573669433594 19.15968322753906 11.44334411621094 15.301513671875 15.301513671875 C 11.44334411621094 19.15968322753906 8.414573669433594 23.65165710449219 6.299339294433594 28.65262985229492 C 4.110054016113281 33.82865524291992 3 39.32871246337891 3 45 C 3 50.67128753662109 4.110054016113281 56.17134475708008 6.299339294433594 61.34737396240234 C 8.414573669433594 66.34834289550781 11.44334411621094 70.84031677246094 15.301513671875 74.698486328125 C 19.15968322753906 78.55665588378906 23.65165710449219 81.58542633056641 28.65262985229492 83.70066070556641 C 33.82865524291992 85.88994598388672 39.32871246337891 87 45 87 C 50.67128753662109 87 56.17134475708008 85.88994598388672 61.34737396240234 83.70066070556641 C 66.34834289550781 81.58542633056641 70.84031677246094 78.55665588378906 74.698486328125 74.698486328125 C 78.55665588378906 70.84031677246094 81.58542633056641 66.34834289550781 83.70066070556641 61.34737396240234 C 85.88994598388672 56.17134475708008 87 50.67128753662109 87 45 C 87 39.32871246337891 85.88994598388672 33.82865524291992 83.70066070556641 28.65262985229492 C 81.58542633056641 23.65165710449219 78.55665588378906 19.15968322753906 74.698486328125 15.301513671875 C 70.84031677246094 11.44334411621094 66.34834289550781 8.414573669433594 61.34737396240234 6.299339294433594 C 56.17134475708008 4.110054016113281 50.67128753662109 3 45 3 M 45 0 C 69.85281372070312 0 90 20.14718627929688 90 45 C 90 69.85281372070312 69.85281372070312 90 45 90 C 20.14718627929688 90 0 69.85281372070312 0 45 C 0 20.14718627929688 20.14718627929688 0 45 0 Z" stroke="none" fill="#5692e8"/>
              </g>
            </g>
          </g>
        </g>
      </g>
      <g id="inteligencia-emocional_3_" data-name="inteligencia-emocional (3)" transform="translate(186.86 6904)">
        <g id="Group_1163351" data-name="Group 1163351" transform="translate(23.016 0.876)">
          <path id="Path_998319" data-name="Path 998319" d="M118.545,357.323l.876-.941.876.941h6.341a26.137,26.137,0,0,0-1.1-7.7,20.076,20.076,0,0,0-9.009-11.763H97.316a20.075,20.075,0,0,0-9.01,11.763,26.137,26.137,0,0,0-1.1,7.7h6.342l.876-.678.876.678Z" transform="translate(-80.483 -299.272)" fill="#9ee4e5"/>
          <g id="Group_1163350" data-name="Group 1163350" transform="translate(0 16.152)">
            <circle id="Ellipse_12529" data-name="Ellipse 12529" cx="5.509" cy="5.509" r="5.509" fill="#80dad8"/>
            <circle id="Ellipse_12530" data-name="Ellipse 12530" cx="5.509" cy="5.509" r="5.509" transform="translate(41.862)" fill="#80dad8"/>
            <path id="Path_998320" data-name="Path 998320" d="M166.322,337.859H147.109a16,16,0,0,0-3.524,2.677,24.268,24.268,0,0,0,26.261,0A16,16,0,0,0,166.322,337.859Z" transform="translate(-130.276 -315.424)" fill="#80dad8"/>
          </g>
          <circle id="Ellipse_12531" data-name="Ellipse 12531" cx="20.809" cy="20.809" r="20.809" transform="translate(5.63)" fill="#9ee4e5"/>
          <path id="Path_998321" data-name="Path 998321" d="M156.408,68.636h15.483A3.838,3.838,0,0,0,174.3,61.8l-.108-.082-.007-.005,0-.006a4.284,4.284,0,0,0-4.067-5.6h-.009a4.285,4.285,0,0,0-6.582-2.139h0a4.285,4.285,0,0,0-6.582,2.139h-.008a4.284,4.284,0,0,0-4.067,5.6l0,.005-.007.005-.108.082a3.838,3.838,0,0,0,2.407,6.835Z" transform="translate(-137.086 -47.826)" fill="#fdaab8"/>
          <path id="Path_998322" data-name="Path 998322" d="M160,58.444a12.271,12.271,0,0,1,1.183-5.273,4.283,4.283,0,0,0-4.242,2.949h-.008a4.284,4.284,0,0,0-4.067,5.6l0,.005-.007.005-.108.082a3.838,3.838,0,0,0,2.407,6.835h10.249A12.307,12.307,0,0,1,160,58.444Z" transform="translate(-137.089 -47.834)" fill="#fd8aa4"/>
          <path id="Path_998323" data-name="Path 998323" d="M216.95,394.985a3.572,3.572,0,0,0-5.942-2.4,3.572,3.572,0,0,0-5.942,2.4c-.183,2.953,2.87,5.011,5.48,6.409a.976.976,0,0,0,.924,0C214.088,399.992,217.133,397.933,216.95,394.985Z" transform="translate(-184.568 -346.832)" fill="#fd8aa4"/>
          <path id="Path_998324" data-name="Path 998324" d="M208.047,392.489c0-.161.006-.32.016-.478a3.456,3.456,0,0,0-3,3.241c-.183,2.953,2.87,5.011,5.48,6.409a.976.976,0,0,0,.924,0,21.579,21.579,0,0,0,2.457-1.506A7.939,7.939,0,0,1,208.047,392.489Z" transform="translate(-184.568 -347.099)" fill="#f47090"/>
        </g>
        <g id="Group_1163352" data-name="Group 1163352" transform="translate(22.14 0)">
          <path id="Path_998325" data-name="Path 998325" d="M167.626,224.4a1.877,1.877,0,0,1-2.834,0,.876.876,0,0,0-1.321,1.151,3.629,3.629,0,0,0,5.475,0,.876.876,0,0,0-1.321-1.151Z" transform="translate(-146.773 -197.927)"/>
          <path id="Path_998326" data-name="Path 998326" d="M302.543,224.4a1.877,1.877,0,0,1-2.834,0,.876.876,0,0,0-1.321,1.151,3.629,3.629,0,0,0,5.475,0,.876.876,0,0,0-1.321-1.151Z" transform="translate(-265.931 -197.927)"/>
          <path id="Path_998327" data-name="Path 998327" d="M235.544,248.039a1.784,1.784,0,0,1-2.694,0,.876.876,0,0,0-1.321,1.151,3.536,3.536,0,0,0,5.335,0,.876.876,0,0,0-1.321-1.151Z" transform="translate(-206.882 -218.802)"/>
          <path id="Path_998328" data-name="Path 998328" d="M168.539,54.756a5.158,5.158,0,0,0-4.451-6.122,5.161,5.161,0,0,0-7.194-2.336,5.161,5.161,0,0,0-7.193,2.335,5.16,5.16,0,0,0-4.451,6.123,4.719,4.719,0,0,0,3.279,8.117H165.26A4.718,4.718,0,0,0,168.539,54.756ZM165.26,61.12h-.86a8.823,8.823,0,0,1-1.641-4.4.876.876,0,0,0-.876-.871h-.005a.876.876,0,0,0-.871.881,6.887,6.887,0,0,0,.184,1.444,5.975,5.975,0,0,0-1.3.347.876.876,0,1,0,.639,1.632,4.215,4.215,0,0,1,1.2-.277,11.311,11.311,0,0,0,.587,1.243H151.473a11.291,11.291,0,0,0,.587-1.243,4.216,4.216,0,0,1,1.2.277.876.876,0,1,0,.639-1.632,5.979,5.979,0,0,0-1.3-.347,6.9,6.9,0,0,0,.184-1.444.876.876,0,0,0-.871-.881h0a.876.876,0,0,0-.876.871,8.823,8.823,0,0,1-1.64,4.4h-.857a2.96,2.96,0,0,1-1.773-5.339.883.883,0,0,0,.313-.98,3.407,3.407,0,0,1,3.242-4.452.876.876,0,0,0,.833-.6,3.4,3.4,0,0,1,4.842-1.946,10.552,10.552,0,0,0,.192,2.194,4.29,4.29,0,0,1-1.08.529.876.876,0,0,0,.516,1.674,5.774,5.774,0,0,0,1.07-.462,4.577,4.577,0,0,0,.6,1.057.876.876,0,0,0,1.377-1.083,7.352,7.352,0,0,1-.926-3.873,3.406,3.406,0,0,1,4.911,1.91.887.887,0,0,0,.839.6,3.405,3.405,0,0,1,3.233,4.458.887.887,0,0,0,.324.98A2.96,2.96,0,0,1,165.26,61.12Z" transform="translate(-129.579 -40.311)"/>
          <path id="Path_998329" data-name="Path 998329" d="M205.258,395.535c2.655-1.422,6.159-3.719,5.941-7.235h0a4.412,4.412,0,0,0-6.817-3.4,4.412,4.412,0,0,0-6.817,3.4c-.218,3.516,3.286,5.813,5.941,7.235A1.849,1.849,0,0,0,205.258,395.535Zm-5.943-7.127a2.7,2.7,0,0,1,4.53-1.76.876.876,0,0,0,1.075,0,2.7,2.7,0,0,1,4.531,1.76c.075,1.2-.365,3.089-5.02,5.583a.1.1,0,0,1-.1,0C202.105,392.8,199.159,390.918,199.315,388.408Z" transform="translate(-177.068 -339.325)"/>
          <path id="Path_998330" data-name="Path 998330" d="M70.427,16.153a21.625,21.625,0,0,0-5.048-9.187.876.876,0,0,0-1.286,1.19,19.922,19.922,0,1,1-2.481-2.268A.876.876,0,1,0,62.681,4.5,21.481,21.481,0,0,0,49.456,0,21.724,21.724,0,0,0,28.486,16.153a6.383,6.383,0,1,0,.52,12.748A21.8,21.8,0,0,0,37.64,39.86a20.806,20.806,0,0,0-3.693,3.6.876.876,0,1,0,1.366,1.1,18.626,18.626,0,0,1,3.967-3.716,21.708,21.708,0,0,0,20.351,0c4.9,3.33,8.412,9.368,8.649,17.213H62.829V53.344a.876.876,0,1,0-1.752,0v4.707H37.834V53.344a.876.876,0,1,0-1.752,0v4.707H30.629A23.151,23.151,0,0,1,33.451,47.32a.876.876,0,0,0-1.528-.857,25.213,25.213,0,0,0-3.059,12.464.876.876,0,0,0,.876.876H69.17a.876.876,0,0,0,.876-.876c0-8.494-3.516-15.129-8.774-19.068A21.8,21.8,0,0,0,69.905,28.9a6.383,6.383,0,1,0,.522-12.748ZM28.47,27.169a4.633,4.633,0,0,1-.374-9.245A21.86,21.86,0,0,0,28.47,27.169Zm41.97,0a21.9,21.9,0,0,0,.374-9.245,4.633,4.633,0,0,1-.374,9.245Z" transform="translate(-22.14 0)"/>
        </g>
      </g>
    </g>
  </g>
</svg>
