<svg xmlns="http://www.w3.org/2000/svg" xmlns:xlink="http://www.w3.org/1999/xlink" width="108" height="108" viewBox="0 0 108 108">
  <defs>
    <filter id="Path_904820" x="0" y="0" width="108" height="108" filterUnits="userSpaceOnUse">
      <feOffset dy="3" input="SourceAlpha"/>
      <feGaussianBlur stdDeviation="3" result="blur"/>
      <feFlood flood-opacity="0.161"/>
      <feComposite operator="in" in2="blur"/>
      <feComposite in="SourceGraphic"/>
    </filter>
  </defs>
  <g id="Group_1163387" data-name="Group 1163387" transform="translate(-160 -930)">
    <g id="Group_1163298" data-name="Group 1163298">
      <g id="Group_1163011" data-name="Group 1163011" transform="translate(0 -1016)">
        <g id="Group_1160531" data-name="Group 1160531" transform="translate(169 1952)">
          <g id="Icono">
            <g transform="matrix(1, 0, 0, 1, -9, -6)" filter="url(#Path_904820)">
              <g id="Path_904820-2" data-name="Path 904820" transform="translate(9 6)" fill="#ecf4fa">
                <path d="M 45 88.5 C 39.12687683105469 88.5 33.43022537231445 87.35007476806641 28.06830024719238 85.08217620849609 C 22.88852500915527 82.89131164550781 18.23629951477051 79.75458526611328 14.2408504486084 75.75914764404297 C 10.24541282653809 71.76370239257812 7.108687400817871 67.11147308349609 4.917825222015381 61.93170166015625 C 2.649924993515015 56.56977462768555 1.5 50.87312316894531 1.5 45 C 1.5 39.12687683105469 2.649924993515015 33.43022537231445 4.917825222015381 28.06830024719238 C 7.108687400817871 22.88852500915527 10.24541282653809 18.23629951477051 14.2408504486084 14.2408504486084 C 18.23629951477051 10.24541282653809 22.88852500915527 7.108687400817871 28.06830024719238 4.917825222015381 C 33.43022537231445 2.649924993515015 39.12687683105469 1.5 45 1.5 C 50.87312316894531 1.5 56.56977462768555 2.649924993515015 61.93170166015625 4.917825222015381 C 67.11147308349609 7.108687400817871 71.76370239257812 10.24541282653809 75.75914764404297 14.2408504486084 C 79.75458526611328 18.23629951477051 82.89131164550781 22.88852500915527 85.08217620849609 28.06830024719238 C 87.35007476806641 33.43022537231445 88.5 39.12687683105469 88.5 45 C 88.5 50.87312316894531 87.35007476806641 56.56977462768555 85.08217620849609 61.93170166015625 C 82.89131164550781 67.11147308349609 79.75458526611328 71.76370239257812 75.75914764404297 75.75914764404297 C 71.76370239257812 79.75458526611328 67.11147308349609 82.89131164550781 61.93170166015625 85.08217620849609 C 56.56977462768555 87.35007476806641 50.87312316894531 88.5 45 88.5 Z" stroke="none"/>
                <path d="M 45 3 C 39.32871246337891 3 33.82865524291992 4.110054016113281 28.65262985229492 6.299339294433594 C 23.65165710449219 8.414573669433594 19.15968322753906 11.44334411621094 15.301513671875 15.301513671875 C 11.44334411621094 19.15968322753906 8.414573669433594 23.65165710449219 6.299339294433594 28.65262985229492 C 4.110054016113281 33.82865524291992 3 39.32871246337891 3 45 C 3 50.67128753662109 4.110054016113281 56.17134475708008 6.299339294433594 61.34737396240234 C 8.414573669433594 66.34834289550781 11.44334411621094 70.84031677246094 15.301513671875 74.698486328125 C 19.15968322753906 78.55665588378906 23.65165710449219 81.58542633056641 28.65262985229492 83.70066070556641 C 33.82865524291992 85.88994598388672 39.32871246337891 87 45 87 C 50.67128753662109 87 56.17134475708008 85.88994598388672 61.34737396240234 83.70066070556641 C 66.34834289550781 81.58542633056641 70.84031677246094 78.55665588378906 74.698486328125 74.698486328125 C 78.55665588378906 70.84031677246094 81.58542633056641 66.34834289550781 83.70066070556641 61.34737396240234 C 85.88994598388672 56.17134475708008 87 50.67128753662109 87 45 C 87 39.32871246337891 85.88994598388672 33.82865524291992 83.70066070556641 28.65262985229492 C 81.58542633056641 23.65165710449219 78.55665588378906 19.15968322753906 74.698486328125 15.301513671875 C 70.84031677246094 11.44334411621094 66.34834289550781 8.414573669433594 61.34737396240234 6.299339294433594 C 56.17134475708008 4.110054016113281 50.67128753662109 3 45 3 M 45 0 C 69.85281372070312 0 90 20.14718627929688 90 45 C 90 69.85281372070312 69.85281372070312 90 45 90 C 20.14718627929688 90 0 69.85281372070312 0 45 C 0 20.14718627929688 20.14718627929688 0 45 0 Z" stroke="none" fill="#2a5673"/>
              </g>
            </g>
          </g>
        </g>
      </g>
      <g id="capacidad" transform="translate(179 939.675)">
        <g id="Group_1163297" data-name="Group 1163297" transform="translate(17.28 13.197)">
          <path id="Path_998065" data-name="Path 998065" d="M146.012,68.32c-.954.329-1.591,1.284-1.736,3.1-.019.272,0,4.653.038,5.367H126.09c.478-15.347-14.745-26.609-12.086-40.149a20.9,20.9,0,0,1,7.846-12.629c9.087-6.939,27.7-5.788,34.873,3.19,1.463,2.182-.25,2.664-.452,4.506-.153,1.39,1.607,6.42,1.992,8.642.513,2.968-1.664,2.951-1.608,5.113.028,1.094.75,2.9,2.929,6.232.62.961,1.113,1.543.979,2.566-.232,1.775-2.838.916-3.682,2.638a2.206,2.206,0,0,0-.029,1.53c.449,1.009.367,1.5.192,1.835a2.414,2.414,0,0,1-1.326.931,3.453,3.453,0,0,1,1.215,1.3,2.339,2.339,0,0,1-.246,1.658,3.206,3.206,0,0,0-.023,1.491c.138,1.1.28,2.473-.689,3.268-.795.652-2.147.645-3.942.49q-3.2-.424-6.022-1.085Z" transform="translate(-113.693 -19.527)" fill="#fdb0a0" fill-rule="evenodd"/>
          <path id="Path_998066" data-name="Path 998066" d="M175.632,78.177H164.575c.478-15.347-14.745-26.609-12.086-40.149A20.9,20.9,0,0,1,160.335,25.4a23.922,23.922,0,0,1,11.855-4.294c6.382.68,12.444,3.183,15.881,7.484,1.463,2.182-.25,2.664-.452,4.506-.153,1.39,1.607,6.42,1.992,8.642.513,2.968-1.664,2.951-1.608,5.113.028,1.094.75,2.9,2.929,6.232.62.961,1.113,1.543.979,2.566-.232,1.775-2.838.916-3.682,2.638a2.206,2.206,0,0,0-.029,1.53c.449,1.009.367,1.5.192,1.835a2.413,2.413,0,0,1-1.325.931,3.454,3.454,0,0,1,1.215,1.3,2.339,2.339,0,0,1-.246,1.658,3.2,3.2,0,0,0-.023,1.491c.138,1.1.28,2.473-.689,3.268a2.573,2.573,0,0,1-1.262.507l-.2-.017q-3.2-.424-6.022-1.085s-1.528-.384-2.272-.6a34.844,34.844,0,0,1-6.738-2.7,1.055,1.055,0,1,0-1,1.859c5.232,2.813,5.743,2.824,5.805,9.911Z" transform="translate(-147.518 -20.914)" fill="#ffcec0" fill-rule="evenodd"/>
          <path id="Path_998067" data-name="Path 998067" d="M142.672,68.9l2.946-.581,1.294-3.118-1.673-2.5,3.449-3.449,2.5,1.673,3.118-1.294.581-2.946h4.878l.581,2.946,3.119,1.294,2.5-1.673L169.4,62.7l-1.673,2.5,1.294,3.118,2.946.581v4.878l-2.946.581-1.294,3.119,1.673,2.5-3.449,3.449-2.5-1.673L160.34,83.04l-.581,2.946h-4.878L154.3,83.04l-3.118-1.294-2.5,1.673-3.449-3.449,1.673-2.5-1.294-3.119-2.946-.581Z" transform="translate(-139.164 -52.189)" fill="#004cbd" fill-rule="evenodd"/>
          <path id="Path_998068" data-name="Path 998068" d="M154.434,73.776l2.946.581,1.294,3.119L157,79.97l2.878,2.878,2.187-1.467,4,1.659.581,2.946H170.1l.581-2.946,4-1.658,2.187,1.467,2.878-2.878-1.673-2.5,1.294-3.119,2.946-.581V68.9l-2.946-.581L178.068,65.2l1.673-2.5-2.878-2.878-2.187,1.467-4-1.658-.581-2.946h-3.454l-.581,2.946-4,1.658-2.187-1.467L157,62.7l1.673,2.5-1.294,3.118-2.946.581Z" transform="translate(-149.502 -52.189)" fill="#0062d9" fill-rule="evenodd"/>
        </g>
        <circle id="Ellipse_12491" data-name="Ellipse 12491" cx="7.536" cy="7.536" r="7.536" transform="translate(26.268 34.788) rotate(-58.28)" fill="#5d689e"/>
        <circle id="Ellipse_12492" data-name="Ellipse 12492" cx="7.506" cy="7.506" r="7.506" transform="translate(27.514 39.431) rotate(-86.846)" fill="#f3f3ff"/>
        <path id="Path_998069" data-name="Path 998069" d="M284.916,53.435a4,4,0,0,1-.177,7.949h-8.7a2.819,2.819,0,0,1-2.814-2.814V46.533a4.346,4.346,0,0,1,7.1,1.69,5.387,5.387,0,0,1,4.589,5.212Z" transform="translate(-236.635 -29.009)" fill="#ff6161" fill-rule="evenodd"/>
        <path id="Path_998070" data-name="Path 998070" d="M284.916,185.384a4,4,0,0,0-.177-7.948h-8.7a2.819,2.819,0,0,0-2.814,2.814v12.037a4.346,4.346,0,0,0,7.1-1.69,5.387,5.387,0,0,0,4.589-5.212Z" transform="translate(-236.635 -145.122)" fill="#ff6161" fill-rule="evenodd"/>
        <path id="Path_998071" data-name="Path 998071" d="M7.12,29.17H4.847a.847.847,0,1,0,0,1.695H7.12a.847.847,0,1,0,0-1.695Zm0,4.659H4.847a.848.848,0,0,0,0,1.7H7.12a.848.848,0,0,0,0-1.7ZM10.3,30.864h2.272a.847.847,0,1,0,0-1.695H10.3a.847.847,0,1,0,0,1.695Zm10.022,8.473a.847.847,0,0,0-.847-.847H17.205a.847.847,0,1,0,0,1.695h2.272A.848.848,0,0,0,20.325,39.338Zm-4.567-8.473H18.03a.847.847,0,1,0,0-1.695H15.758a.847.847,0,0,0,0,1.695Zm-1.735-6.355H11.75a.847.847,0,1,0,0,1.695h2.272a.847.847,0,0,0,0-1.695Zm4.855,10.168a.848.848,0,0,0-.847-.848H15.758a.848.848,0,0,0,0,1.7H18.03A.847.847,0,0,0,18.877,34.677Zm-4.855,3.813H11.75a.847.847,0,1,0,0,1.695h2.272a.847.847,0,0,0,0-1.695Zm-.6-3.813a.848.848,0,0,0-.848-.848H10.3a.848.848,0,0,0,0,1.7h2.272A.847.847,0,0,0,13.422,34.677ZM17.205,26.2h2.272a.847.847,0,1,0,0-1.695H17.205a.847.847,0,1,0,0,1.695Zm24.106,7.423h-.043a.847.847,0,0,0,.011,1.693.281.281,0,0,0,.032,0,1.6,1.6,0,0,1,1.3,2.539.847.847,0,1,0,1.376.989,3.3,3.3,0,0,0-2.677-5.223Zm-.043-2.558h.042a3.3,3.3,0,0,0,2.678-5.223.847.847,0,1,0-1.376.989,1.6,1.6,0,0,1-1.3,2.538h-.031a.848.848,0,0,0-.011,1.7ZM23.9,30.162l-2.259.446v3.478l2.259.446a.847.847,0,0,1,.619.507l1.292,3.115a.847.847,0,0,1-.079.8l-1.283,1.913,2.46,2.46,1.914-1.283a.847.847,0,0,1,.8-.079l3.115,1.291a.851.851,0,0,1,.507.619l.445,2.259h2.1V40.69q-.178.007-.356.007a8.35,8.35,0,1,1,0-16.7q.178,0,.356.007v-5.44h-2.1l-.445,2.259a.848.848,0,0,1-.507.619l-3.115,1.292a.845.845,0,0,1-.8-.079L26.91,21.371l-2.46,2.46,1.283,1.915a.846.846,0,0,1,.079.8l-1.292,3.114a.845.845,0,0,1-.619.507ZM37.478,17.94a3.482,3.482,0,1,1,3.076,6.1.847.847,0,0,0,.454,1.633,5.2,5.2,0,0,0,3.769-4.53,5.117,5.117,0,0,0,.012-.706,4.52,4.52,0,0,1,2.2,6.057.847.847,0,1,0,1.529.73,6.187,6.187,0,0,0,.525-1.69,3.138,3.138,0,0,1-1,5.968H39.438l0,0a1.957,1.957,0,0,1-1.956-1.955v-5.45A3.025,3.025,0,0,1,39.8,21.048a.847.847,0,1,0-.285-1.671,4.159,4.159,0,0,0-2.038.962v-2.4Zm12.5,16.2a3.137,3.137,0,0,1-.942,5.022,6.183,6.183,0,0,0-.525-1.69.848.848,0,1,0-1.529.731,4.519,4.519,0,0,1-2.2,6.056,5.139,5.139,0,0,0-.012-.706,5.2,5.2,0,0,0-3.769-4.53.847.847,0,1,0-.454,1.633,3.482,3.482,0,1,1-3.077,6.1v-2.4a4.148,4.148,0,0,0,2.038.962.847.847,0,0,0,.285-1.671A3.025,3.025,0,0,1,37.477,40.6V35.15a1.957,1.957,0,0,1,1.956-1.955h8.621a3.138,3.138,0,0,1,1.927.945Zm-14.2-4.6a3.645,3.645,0,0,0,1.315,2.8,3.641,3.641,0,0,0-1.315,2.8v3.843c-.119.006-.237.009-.356.009a6.655,6.655,0,1,1,0-13.31q.178,0,.356.011v3.841Zm-12.654-.956.944-2.276L22.655,24.2a.847.847,0,0,1,.1-1.071L26.2,19.679a.849.849,0,0,1,1.071-.1l2.115,1.418,2.276-.945.492-2.5a.848.848,0,0,1,.832-.684h3.131A5.168,5.168,0,0,1,44.3,18.491a6.191,6.191,0,0,1,4.761,5.246,4.831,4.831,0,0,1,1.411,8.611A4.821,4.821,0,0,1,52.288,37.9a4.862,4.862,0,0,1-3.222,3.064A6.194,6.194,0,0,1,44.3,46.205a5.176,5.176,0,0,1-8.18,1.621H32.991a.848.848,0,0,1-.832-.684l-.492-2.5L29.391,43.7l-2.115,1.418a.847.847,0,0,1-1.071-.1L22.76,41.57a.847.847,0,0,1-.1-1.071l1.418-2.115-.944-2.276-2.5-.492a.848.848,0,0,1-.683-.832V29.911a.846.846,0,0,1,.683-.83l2.5-.493ZM64.987,48.042c-.193,1.475-1.465,1.833-2.307,2.07-.754.212-1.228.365-1.457.833-.057.117-.1.285.022.9a2.763,2.763,0,0,1,.132,2.488,2.138,2.138,0,0,1-.6.708,3.573,3.573,0,0,1,.5.771,1.006,1.006,0,0,1,.038.093,3.133,3.133,0,0,1-.281,2.293,3.6,3.6,0,0,0,.05,1.025c.137,1.091.367,2.915-.993,4.031a4.379,4.379,0,0,1-2.848.771c-.547,0-1.123-.041-1.708-.092l-.038,0q-3.077-.409-5.828-1.041c-.551.3-.881,1.065-.979,2.276-.015.355,0,4.6.039,5.268a.848.848,0,0,1-.846.895H29.678a.848.848,0,0,1-.847-.874c.224-7.174-3.161-13.525-6.434-19.666-1.137-2.134-2.313-4.34-3.292-6.512a.847.847,0,1,1,1.545-.7c.956,2.119,2.066,4.2,3.242,6.41,3.248,6.094,6.6,12.387,6.644,19.643h16.48c-.024-1.528-.034-4.312-.015-4.581a5.613,5.613,0,0,1,.773-2.632,38.037,38.037,0,0,1-8.108-3.125.847.847,0,1,1,.8-1.493A44.863,44.863,0,0,0,55.7,62.245c1.294.11,2.719.187,3.315-.3s.519-1.462.387-2.509a3.647,3.647,0,0,1,.1-1.96.7.7,0,0,1,.034-.064,1.593,1.593,0,0,0,.181-.936,2.621,2.621,0,0,0-.844-.867l-.077-.054a.847.847,0,0,1,.17-1.459c.433-.186.806-.347.91-.545.123-.235-.049-.728-.215-1.1a.865.865,0,0,1-.054-.169,3.01,3.01,0,0,1,.1-2.08,3.537,3.537,0,0,1,2.519-1.719c.936-.264,1.048-.366,1.086-.658.075-.567-.128-.9-.633-1.664-.07-.107-.144-.218-.219-.334-2.084-3.19-3.03-5.249-3.066-6.675a3.733,3.733,0,0,1,.978-2.566,2.547,2.547,0,0,0,.643-2.429c-.146-.84-.505-2.127-.885-3.49-.763-2.734-1.218-4.461-1.116-5.395a4.933,4.933,0,0,1,.673-1.895,1.5,1.5,0,0,0-.063-2.021c-3.233-4.023-9.1-6.656-16.115-7.225-6.835-.556-13.409,1.017-17.584,4.206a20.247,20.247,0,0,0-3.141,2.981.847.847,0,0,1-1.293-1.1,21.92,21.92,0,0,1,3.405-3.234c4.5-3.436,11.508-5.135,18.75-4.547,7.492.608,13.806,3.482,17.325,7.885a.7.7,0,0,1,.042.057,3.119,3.119,0,0,1,.165,3.8,3.368,3.368,0,0,0-.479,1.272,24.56,24.56,0,0,0,1.064,4.754c.392,1.4.762,2.732.923,3.656a4.173,4.173,0,0,1-.97,3.75,2.112,2.112,0,0,0-.628,1.49c.027,1.048.966,3,2.793,5.794.075.115.144.222.212.323a3.839,3.839,0,0,1,.9,2.818Z" transform="translate(0 0)" fill-rule="evenodd"/>
      </g>
    </g>
  </g>
</svg>
