<svg xmlns="http://www.w3.org/2000/svg" xmlns:xlink="http://www.w3.org/1999/xlink" width="108" height="108" viewBox="0 0 108 108">
  <defs>
    <filter id="Path_982547" x="0" y="0" width="108" height="108" filterUnits="userSpaceOnUse">
      <feOffset dy="3" input="SourceAlpha"/>
      <feGaussianBlur stdDeviation="3" result="blur"/>
      <feFlood flood-opacity="0.161"/>
      <feComposite operator="in" in2="blur"/>
      <feComposite in="SourceGraphic"/>
    </filter>
  </defs>
  <g id="Group_1163381" data-name="Group 1163381" transform="translate(-274 -850)">
    <g id="Group_1163157" data-name="Group 1163157">
      <g id="Group_1159930" data-name="Group 1159930" transform="translate(0 443)">
        <g id="Group_1149835" data-name="Group 1149835" transform="translate(0 -4452)">
          <g id="Group_1149673" data-name="Group 1149673" transform="translate(-52 -2821)">
            <g id="Group_1148532" data-name="Group 1148532" transform="translate(51 4253)">
              <g id="Group_1147065" data-name="Group 1147065" transform="translate(-341 -556)">
                <g transform="matrix(1, 0, 0, 1, 616, 3983)" filter="url(#Path_982547)">
                  <g id="Path_982547-2" data-name="Path 982547" transform="translate(9 6)" fill="#f4fdfe">
                    <path d="M 45 88.5 C 39.12687683105469 88.5 33.43022537231445 87.35007476806641 28.06830024719238 85.08217620849609 C 22.88852500915527 82.89131164550781 18.23629951477051 79.75458526611328 14.2408504486084 75.75914764404297 C 10.24541282653809 71.76370239257812 7.108687400817871 67.11147308349609 4.917825222015381 61.93170166015625 C 2.649924993515015 56.56977462768555 1.5 50.87312316894531 1.5 45 C 1.5 39.12687683105469 2.649924993515015 33.43022537231445 4.917825222015381 28.06830024719238 C 7.108687400817871 22.88852500915527 10.24541282653809 18.23629951477051 14.2408504486084 14.2408504486084 C 18.23629951477051 10.24541282653809 22.88852500915527 7.108687400817871 28.06830024719238 4.917825222015381 C 33.43022537231445 2.649924993515015 39.12687683105469 1.5 45 1.5 C 50.87312316894531 1.5 56.56977462768555 2.649924993515015 61.93170166015625 4.917825222015381 C 67.11147308349609 7.108687400817871 71.76370239257812 10.24541282653809 75.75914764404297 14.2408504486084 C 79.75458526611328 18.23629951477051 82.89131164550781 22.88852500915527 85.08217620849609 28.06830024719238 C 87.35007476806641 33.43022537231445 88.5 39.12687683105469 88.5 45 C 88.5 50.87312316894531 87.35007476806641 56.56977462768555 85.08217620849609 61.93170166015625 C 82.89131164550781 67.11147308349609 79.75458526611328 71.76370239257812 75.75914764404297 75.75914764404297 C 71.76370239257812 79.75458526611328 67.11147308349609 82.89131164550781 61.93170166015625 85.08217620849609 C 56.56977462768555 87.35007476806641 50.87312316894531 88.5 45 88.5 Z" stroke="none"/>
                    <path d="M 45 3 C 39.32871246337891 3 33.82865524291992 4.110054016113281 28.65262985229492 6.299339294433594 C 23.65165710449219 8.414573669433594 19.15968322753906 11.44334411621094 15.301513671875 15.301513671875 C 11.44334411621094 19.15968322753906 8.414573669433594 23.65165710449219 6.299339294433594 28.65262985229492 C 4.110054016113281 33.82865524291992 3 39.32871246337891 3 45 C 3 50.67128753662109 4.110054016113281 56.17134475708008 6.299339294433594 61.34737396240234 C 8.414573669433594 66.34834289550781 11.44334411621094 70.84031677246094 15.301513671875 74.698486328125 C 19.15968322753906 78.55665588378906 23.65165710449219 81.58542633056641 28.65262985229492 83.70066070556641 C 33.82865524291992 85.88994598388672 39.32871246337891 87 45 87 C 50.67128753662109 87 56.17134475708008 85.88994598388672 61.34737396240234 83.70066070556641 C 66.34834289550781 81.58542633056641 70.84031677246094 78.55665588378906 74.698486328125 74.698486328125 C 78.55665588378906 70.84031677246094 81.58542633056641 66.34834289550781 83.70066070556641 61.34737396240234 C 85.88994598388672 56.17134475708008 87 50.67128753662109 87 45 C 87 39.32871246337891 85.88994598388672 33.82865524291992 83.70066070556641 28.65262985229492 C 81.58542633056641 23.65165710449219 78.55665588378906 19.15968322753906 74.698486328125 15.301513671875 C 70.84031677246094 11.44334411621094 66.34834289550781 8.414573669433594 61.34737396240234 6.299339294433594 C 56.17134475708008 4.110054016113281 50.67128753662109 3 45 3 M 45 0 C 69.85281372070312 0 90 20.14718627929688 90 45 C 90 69.85281372070312 69.85281372070312 90 45 90 C 20.14718627929688 90 0 69.85281372070312 0 45 C 0 20.14718627929688 20.14718627929688 0 45 0 Z" stroke="none" fill="#56838a"/>
                  </g>
                </g>
              </g>
            </g>
          </g>
        </g>
      </g>
      <g id="me-gusta_3_" data-name="me-gusta (3)" transform="translate(296.726 872)">
        <path id="Path_997723" data-name="Path 997723" d="M149.88,13.075c-6.425-11.933-19.335-2.364-11.015,7.343A39.721,39.721,0,0,0,149.88,29.6,39.721,39.721,0,0,0,160.9,20.418C169.216,10.711,156.306,1.142,149.88,13.075Z" transform="translate(-118.55 -6.657)" fill="#ff66b2"/>
        <path id="Path_997724" data-name="Path 997724" d="M142.493,20.424c-4.881-5.694-2.456-11.34,1.679-12.627-5.913-1.768-11.509,5.391-5.306,12.627A39.723,39.723,0,0,0,149.881,29.6s.686-.343,1.813-1.068A42.99,42.99,0,0,1,142.493,20.424Z" transform="translate(-118.551 -6.663)" fill="#f39"/>
        <g id="Group_1163155" data-name="Group 1163155" transform="translate(35.001 23.858)">
          <path id="Path_997725" data-name="Path 997725" d="M292.193,208.709a2.753,2.753,0,0,0-4.131,2.384v9.179h2.754v-9.179A2.752,2.752,0,0,1,292.193,208.709Z" transform="translate(-288.062 -208.34)" fill="#ffe6c9"/>
          <path id="Path_997726" data-name="Path 997726" d="M340.287,224.74a2.753,2.753,0,0,0-4.131,2.384v7.343h2.754v-7.343A2.752,2.752,0,0,1,340.287,224.74Z" transform="translate(-330.648 -222.535)" fill="#ffe6c9"/>
          <path id="Path_997727" data-name="Path 997727" d="M388.381,240.771a2.753,2.753,0,0,0-4.131,2.384v5.508H387v-5.508A2.752,2.752,0,0,1,388.381,240.771Z" transform="translate(-373.235 -236.73)" fill="#ffe6c9"/>
        </g>
        <path id="Path_997728" data-name="Path 997728" d="M174.071,141.034a2.754,2.754,0,0,0-2.754,2.754v-1.836a2.754,2.754,0,1,0-5.508,0v-1.836a2.754,2.754,0,0,0-5.508,0v-9.179a2.754,2.754,0,1,0-5.508,0V152l-6.024-8.027a2.754,2.754,0,1,0-4.473,3.213l10.5,14.911v9.179h22.03V143.788A2.754,2.754,0,0,0,174.071,141.034Z" transform="translate(-125.301 -113.504)" fill="#f1cbbd"/>
        <g id="Group_1163156" data-name="Group 1163156" transform="translate(18.479 14.679)">
          <path id="Path_997729" data-name="Path 997729" d="M157.55,284.447v-9.179l-10.5-14.911a2.754,2.754,0,0,1,.63-3.843c.061-.044.124-.084.188-.123a2.754,2.754,0,0,0-3.572,4.015l10.5,14.911V284.5h22.03v-.049Z" transform="translate(-143.781 -241.404)" fill="#edbca9"/>
          <path id="Path_997730" data-name="Path 997730" d="M242.722,152V130.888a2.752,2.752,0,0,1,1.334-2.36,2.754,2.754,0,0,0-4.088,2.409V152h2.754Z" transform="translate(-228.953 -128.184)" fill="#edbca9"/>
        </g>
        <path id="Path_997731" data-name="Path 997731" d="M425.689,340.667a.861.861,0,0,0-.861.861v17.9a.861.861,0,0,0,1.721,0v-17.9A.86.86,0,0,0,425.689,340.667Z" transform="translate(-374.165 -301.655)"/>
        <path id="Path_997732" data-name="Path 997732" d="M160.6,26.67a3.593,3.593,0,0,0-2.073.656,3.61,3.61,0,0,0-5.507-1.836,3.611,3.611,0,0,0-5.328-1.955V20.97a.857.857,0,0,0,.248-.131,45.019,45.019,0,0,0,6.888-6.518c2.809-3.278,3.644-6.942,2.291-10.055a6.984,6.984,0,0,0-6.129-4.26c-2.951-.125-5.75,1.585-7.83,4.733-2.08-3.149-4.877-4.859-7.83-4.733a6.984,6.984,0,0,0-6.129,4.26c-1.353,3.112-.518,6.777,2.291,10.055a44.159,44.159,0,0,0,8.9,7.952c.025.016.051.029.076.043v13.6l-4.47-5.956a3.614,3.614,0,0,0-5.87,4.218L140.46,48.865v8.907a.861.861,0,1,0,1.721,0V48.593a.868.868,0,0,0-.157-.5l-10.5-14.918a1.893,1.893,0,0,1,3.075-2.209l.011.015,6.024,8.027a.861.861,0,0,0,1.549-.516V17.433a1.893,1.893,0,0,1,3.786,0V32.988a.861.861,0,0,0,1.721,0V26.612a1.893,1.893,0,1,1,3.786,0v6.376a.861.861,0,1,0,1.721,0v-4.54a1.893,1.893,0,0,1,3.786,0v4.54a.861.861,0,1,0,1.721,0v-2.7a1.893,1.893,0,1,1,3.786,0v5.508a.861.861,0,0,0,1.721,0V30.284A3.619,3.619,0,0,0,160.6,26.67ZM144.074,13.819a3.618,3.618,0,0,0-3.614,3.614v2.8a42.9,42.9,0,0,1-7.665-7.035c-2.364-2.758-3.1-5.764-2.02-8.248A5.276,5.276,0,0,1,135.4,1.726c2.642-.109,5.2,1.748,7,5.1a.868.868,0,0,0,1.515,0c1.8-3.352,4.357-5.211,7-5.1a5.275,5.275,0,0,1,4.623,3.227c1.08,2.484.344,5.491-2.02,8.248a43.506,43.506,0,0,1-5.829,5.647V17.433A3.618,3.618,0,0,0,144.074,13.819Z" transform="translate(-111.826 0)"/>
        <path id="Path_997733" data-name="Path 997733" d="M471.914,1.2a.861.861,0,0,0-1.286,1.144,10.152,10.152,0,0,1,0,13.488.861.861,0,1,0,1.286,1.144,11.873,11.873,0,0,0,0-15.775Z" transform="translate(-414.527 -0.811)"/>
        <path id="Path_997734" data-name="Path 997734" d="M449.2,23.955a.861.861,0,1,0-1.319,1.105,6.479,6.479,0,0,1,0,8.32.861.861,0,1,0,1.319,1.105,8.2,8.2,0,0,0,0-10.53Z" transform="translate(-394.398 -20.939)"/>
        <path id="Path_997735" data-name="Path 997735" d="M425.2,46.651a.86.86,0,0,0-.214,1.2,2.808,2.808,0,0,1,0,3.208.86.86,0,1,0,1.412.984,4.529,4.529,0,0,0,0-5.176A.861.861,0,0,0,425.2,46.651Z" transform="translate(-374.165 -41.172)"/>
        <path id="Path_997736" data-name="Path 997736" d="M4,9.092A10.139,10.139,0,0,1,6.559,2.348.861.861,0,0,0,5.273,1.2a11.873,11.873,0,0,0,0,15.775.861.861,0,1,0,1.286-1.144A10.138,10.138,0,0,1,4,9.092Z" transform="translate(0 -0.81)"/>
        <path id="Path_997737" data-name="Path 997737" d="M37.461,23.848a.86.86,0,0,0-1.212.107,8.2,8.2,0,0,0,0,10.531.861.861,0,1,0,1.319-1.105,6.479,6.479,0,0,1,0-8.32A.861.861,0,0,0,37.461,23.848Z" transform="translate(-28.389 -20.939)"/>
        <path id="Path_997738" data-name="Path 997738" d="M68.409,46.651a.861.861,0,0,0-1.2.214,4.529,4.529,0,0,0,0,5.176.861.861,0,1,0,1.412-.984,2.807,2.807,0,0,1,0-3.208A.861.861,0,0,0,68.409,46.651Z" transform="translate(-56.782 -41.172)"/>
      </g>
    </g>
  </g>
</svg>
