<svg xmlns="http://www.w3.org/2000/svg" xmlns:xlink="http://www.w3.org/1999/xlink" width="108" height="108" viewBox="0 0 108 108">
  <defs>
    <filter id="Path_982547" x="0" y="0" width="108" height="108" filterUnits="userSpaceOnUse">
      <feOffset dy="3" input="SourceAlpha"/>
      <feGaussianBlur stdDeviation="3" result="blur"/>
      <feFlood flood-opacity="0.161"/>
      <feComposite operator="in" in2="blur"/>
      <feComposite in="SourceGraphic"/>
    </filter>
  </defs>
  <g id="Group_1163382" data-name="Group 1163382" transform="translate(-588 -850)">
    <g id="Group_1163159" data-name="Group 1163159">
      <g id="Group_1159932" data-name="Group 1159932" transform="translate(0 443)">
        <g id="Group_1149836" data-name="Group 1149836" transform="translate(0 -4452)">
          <g id="Group_1149674" data-name="Group 1149674" transform="translate(-158 -2821)">
            <g id="Group_1148534" data-name="Group 1148534" transform="translate(156 4253)">
              <g id="Group_1147066" data-name="Group 1147066" transform="translate(-26 -556)">
                <g transform="matrix(1, 0, 0, 1, 616, 3983)" filter="url(#Path_982547)">
                  <g id="Path_982547-2" data-name="Path 982547" transform="translate(9 6)" fill="#f4fdfe">
                    <path d="M 45 88.5 C 39.12687683105469 88.5 33.43022537231445 87.35007476806641 28.06830024719238 85.08217620849609 C 22.88852500915527 82.89131164550781 18.23629951477051 79.75458526611328 14.2408504486084 75.75914764404297 C 10.24541282653809 71.76370239257812 7.108687400817871 67.11147308349609 4.917825222015381 61.93170166015625 C 2.649924993515015 56.56977462768555 1.5 50.87312316894531 1.5 45 C 1.5 39.12687683105469 2.649924993515015 33.43022537231445 4.917825222015381 28.06830024719238 C 7.108687400817871 22.88852500915527 10.24541282653809 18.23629951477051 14.2408504486084 14.2408504486084 C 18.23629951477051 10.24541282653809 22.88852500915527 7.108687400817871 28.06830024719238 4.917825222015381 C 33.43022537231445 2.649924993515015 39.12687683105469 1.5 45 1.5 C 50.87312316894531 1.5 56.56977462768555 2.649924993515015 61.93170166015625 4.917825222015381 C 67.11147308349609 7.108687400817871 71.76370239257812 10.24541282653809 75.75914764404297 14.2408504486084 C 79.75458526611328 18.23629951477051 82.89131164550781 22.88852500915527 85.08217620849609 28.06830024719238 C 87.35007476806641 33.43022537231445 88.5 39.12687683105469 88.5 45 C 88.5 50.87312316894531 87.35007476806641 56.56977462768555 85.08217620849609 61.93170166015625 C 82.89131164550781 67.11147308349609 79.75458526611328 71.76370239257812 75.75914764404297 75.75914764404297 C 71.76370239257812 79.75458526611328 67.11147308349609 82.89131164550781 61.93170166015625 85.08217620849609 C 56.56977462768555 87.35007476806641 50.87312316894531 88.5 45 88.5 Z" stroke="none"/>
                    <path d="M 45 3 C 39.32871246337891 3 33.82865524291992 4.110054016113281 28.65262985229492 6.299339294433594 C 23.65165710449219 8.414573669433594 19.15968322753906 11.44334411621094 15.301513671875 15.301513671875 C 11.44334411621094 19.15968322753906 8.414573669433594 23.65165710449219 6.299339294433594 28.65262985229492 C 4.110054016113281 33.82865524291992 3 39.32871246337891 3 45 C 3 50.67128753662109 4.110054016113281 56.17134475708008 6.299339294433594 61.34737396240234 C 8.414573669433594 66.34834289550781 11.44334411621094 70.84031677246094 15.301513671875 74.698486328125 C 19.15968322753906 78.55665588378906 23.65165710449219 81.58542633056641 28.65262985229492 83.70066070556641 C 33.82865524291992 85.88994598388672 39.32871246337891 87 45 87 C 50.67128753662109 87 56.17134475708008 85.88994598388672 61.34737396240234 83.70066070556641 C 66.34834289550781 81.58542633056641 70.84031677246094 78.55665588378906 74.698486328125 74.698486328125 C 78.55665588378906 70.84031677246094 81.58542633056641 66.34834289550781 83.70066070556641 61.34737396240234 C 85.88994598388672 56.17134475708008 87 50.67128753662109 87 45 C 87 39.32871246337891 85.88994598388672 33.82865524291992 83.70066070556641 28.65262985229492 C 81.58542633056641 23.65165710449219 78.55665588378906 19.15968322753906 74.698486328125 15.301513671875 C 70.84031677246094 11.44334411621094 66.34834289550781 8.414573669433594 61.34737396240234 6.299339294433594 C 56.17134475708008 4.110054016113281 50.67128753662109 3 45 3 M 45 0 C 69.85281372070312 0 90 20.14718627929688 90 45 C 90 69.85281372070312 69.85281372070312 90 45 90 C 20.14718627929688 90 0 69.85281372070312 0 45 C 0 20.14718627929688 20.14718627929688 0 45 0 Z" stroke="none" fill="#56838a"/>
                  </g>
                </g>
              </g>
            </g>
          </g>
        </g>
      </g>
      <g id="development_1_" data-name="development (1)" transform="translate(611.98 869.25)">
        <g id="Group_1163158" data-name="Group 1163158" transform="translate(0.842 3.576)">
          <path id="Path_997739" data-name="Path 997739" d="M65.681,253.243a29.631,29.631,0,0,1-.477,5.3l-6.029,1.667a23.782,23.782,0,0,1-1.764,4.249l3.078,5.446A29.489,29.489,0,0,1,53,277.4l-5.443-3.082a23.784,23.784,0,0,1-4.249,1.764l-1.673,6.03a29.681,29.681,0,0,1-10.591,0l-1.673-6.03a23.785,23.785,0,0,1-4.249-1.764L19.68,277.4a29.489,29.489,0,0,1-7.488-7.488l3.078-5.446a23.78,23.78,0,0,1-1.764-4.249l-6.03-1.673a29.617,29.617,0,0,1-.477-5.3Z" transform="translate(-7 -224.552)" fill="#ffba57" fill-rule="evenodd"/>
          <path id="Path_997740" data-name="Path 997740" d="M155.978,253.243a15.42,15.42,0,0,1-30.839,0Z" transform="translate(-111.218 -224.552)" fill="#eaf6ff" fill-rule="evenodd"/>
          <path id="Path_997741" data-name="Path 997741" d="M7,165.193H25.632v-6.442a5.333,5.333,0,0,0-5.319-5.319H12.322A5.336,5.336,0,0,0,7,158.751Z" transform="translate(-7 -136.502)" fill="#0091ca" fill-rule="evenodd"/>
          <path id="Path_997742" data-name="Path 997742" d="M60.2,153.432l.124.516-.071.218c-.865,2.767-6.935,2.767-7.8,0l-.067-.218.121-.516Z" transform="translate(-47.042 -136.502)" fill="#0076a4" fill-rule="evenodd"/>
          <path id="Path_997743" data-name="Path 997743" d="M64.613,111.681l1.288,5.406c-.62,1.985-5.6,1.985-6.221,0l1.284-5.406Z" transform="translate(-53.473 -99.671)" fill="#fbbd80" fill-rule="evenodd"/>
          <path id="Path_997744" data-name="Path 997744" d="M69.492,114.759a4.172,4.172,0,0,1-5.114,0l.731-3.078h3.649Z" transform="translate(-57.617 -99.671)" fill="#e2aa73" fill-rule="evenodd"/>
          <path id="Path_997745" data-name="Path 997745" d="M62.964,62.871v5.5a3.563,3.563,0,1,1-7.126,0v-5.5Z" transform="translate(-50.083 -56.612)" fill="#ffd18d" fill-rule="evenodd"/>
          <path id="Path_997746" data-name="Path 997746" d="M55.96,48.609V44.927c0-4.9-9.286-4.574-9.286,0v3.682c.037-.01,3.109-1.948,4.739-3a1.035,1.035,0,0,1,.812-.144,1.021,1.021,0,0,1,.671.476A7.438,7.438,0,0,0,55.96,48.61Z" transform="translate(-41.999 -37.649)" fill="#fbbd80" fill-rule="evenodd"/>
          <path id="Path_997747" data-name="Path 997747" d="M165.126,152.062h21.416v-7.4a6.132,6.132,0,0,0-6.113-6.114H171.24a6.132,6.132,0,0,0-6.114,6.114Z" transform="translate(-146.494 -123.371)" fill="#3bb54a" fill-rule="evenodd"/>
          <path id="Path_997748" data-name="Path 997748" d="M227.1,138.547l.141.587-.067.218c-.959,3.065-7.774,3.065-8.733,0l-.067-.218.141-.587Z" transform="translate(-193.472 -123.371)" fill="#30933c" fill-rule="evenodd"/>
          <path id="Path_997749" data-name="Path 997749" d="M231.332,90.563l1.479,6.211c-.714,2.284-6.436,2.284-7.15,0l1.479-6.211Z" transform="translate(-199.896 -81.041)" fill="#fbbd80" fill-rule="evenodd"/>
          <path id="Path_997750" data-name="Path 997750" d="M237.1,94a4.711,4.711,0,0,1-5.828,0l.818-3.437h4.192Z" transform="translate(-204.842 -81.041)" fill="#e2aa73" fill-rule="evenodd"/>
          <path id="Path_997751" data-name="Path 997751" d="M229.439,34.468v6.325a4.095,4.095,0,1,1-8.189,0V34.468Z" transform="translate(-196.004 -31.556)" fill="#ffd18d" fill-rule="evenodd"/>
          <path id="Path_997752" data-name="Path 997752" d="M221.391,18.074V13.839c0-5.627-10.671-5.255-10.671,0v4.236c.043-.013,3.749-2.351,5.584-3.541a1.063,1.063,0,0,1,1.492.345A8.493,8.493,0,0,0,221.391,18.074Z" transform="translate(-186.715 -9.756)" fill="#fbbd80" fill-rule="evenodd"/>
          <path id="Path_997753" data-name="Path 997753" d="M346.874,165.193h18.632v-6.442a5.336,5.336,0,0,0-5.322-5.319h-7.992a5.333,5.333,0,0,0-5.319,5.319Z" transform="translate(-306.826 -136.502)" fill="#ff4755" fill-rule="evenodd"/>
          <path id="Path_997754" data-name="Path 997754" d="M400.057,153.432l.121.516-.067.218c-.865,2.767-6.935,2.767-7.8,0l-.067-.218.124-.516Z" transform="translate(-346.846 -136.502)" fill="#cf3a45" fill-rule="evenodd"/>
          <path id="Path_997755" data-name="Path 997755" d="M404.462,111.681l1.284,5.406c-.62,1.985-5.6,1.985-6.221,0l1.288-5.406Z" transform="translate(-353.274 -99.671)" fill="#fbbd80" fill-rule="evenodd"/>
          <path id="Path_997756" data-name="Path 997756" d="M409.338,114.759a4.172,4.172,0,0,1-5.114,0l.734-3.078h3.649Z" transform="translate(-357.418 -99.671)" fill="#e2aa73" fill-rule="evenodd"/>
          <path id="Path_997757" data-name="Path 997757" d="M402.81,62.871v5.5a3.563,3.563,0,1,1-7.126,0v-5.5Z" transform="translate(-349.884 -56.612)" fill="#ffd18d" fill-rule="evenodd"/>
          <path id="Path_997758" data-name="Path 997758" d="M395.805,48.609V44.927c0-4.9-9.286-4.574-9.286,0v3.682c.04-.01,3.109-1.948,4.742-3a1.067,1.067,0,0,1,1.482.332,7.428,7.428,0,0,0,3.062,2.673Z" transform="translate(-341.799 -37.649)" fill="#fbbd80" fill-rule="evenodd"/>
        </g>
        <path id="Path_997759" data-name="Path 997759" d="M53.885,19.632l-.3-1.369a4.463,4.463,0,0,0,1.025-2.724.94.94,0,0,0,1.079-.93V10.937A4.086,4.086,0,0,0,53.887,7.5a6.429,6.429,0,0,0-3.641-1.038c-2.826,0-5.685,1.539-5.685,4.479v3.672a.943.943,0,0,0,.941.941,1.051,1.051,0,0,0,.137-.011,4.466,4.466,0,0,0,1.024,2.721l-.3,1.372a6.96,6.96,0,0,0-5.2,2.682,7.633,7.633,0,0,0-6.784-4.432l-.376-1.751a5,5,0,0,0,1.19-3.239v-.026a.941.941,0,0,0,1.236-.893V7.758a4.559,4.559,0,0,0-2.015-3.84A7.251,7.251,0,0,0,30.317,2.75c-3.177,0-6.392,1.72-6.392,5.008v4.215a.94.94,0,0,0,.943.941.923.923,0,0,0,.2-.022.848.848,0,0,0,.093-.025v.025a5,5,0,0,0,1.19,3.24l-.376,1.749a7.636,7.636,0,0,0-6.784,4.433A6.96,6.96,0,0,0,14,19.632l-.3-1.372a4.472,4.472,0,0,0,1.024-2.722.94.94,0,0,0,1.078-.93V10.937A4.085,4.085,0,0,0,14,7.5a6.43,6.43,0,0,0-3.642-1.038C7.533,6.458,4.672,8,4.672,10.937v3.672a.943.943,0,0,0,.943.941,1.084,1.084,0,0,0,.137-.011A4.475,4.475,0,0,0,6.774,18.26L6.48,19.632A6.579,6.579,0,0,0,.02,26.255v6.012A30.554,30.554,0,0,0,.508,37.7a.942.942,0,0,0,.676.747L6.7,39.976a24.952,24.952,0,0,0,1.426,3.445L5.309,48.4a.942.942,0,0,0,.045,1,30.144,30.144,0,0,0,7.7,7.7.943.943,0,0,0,1,.046l4.98-2.815a24.629,24.629,0,0,0,3.443,1.427L24,61.264a.944.944,0,0,0,.738.675,30.318,30.318,0,0,0,10.885,0,.944.944,0,0,0,.738-.675l1.529-5.513a24.744,24.744,0,0,0,3.442-1.426l4.981,2.815a.944.944,0,0,0,1-.046,30.2,30.2,0,0,0,7.7-7.7.942.942,0,0,0,.045-1l-2.814-4.976a24.807,24.807,0,0,0,1.426-3.445l5.513-1.529a.942.942,0,0,0,.675-.74,30.593,30.593,0,0,0,.489-5.439V26.255a6.58,6.58,0,0,0-6.461-6.623ZM46.444,12.91V10.937c0-1.9,2.274-2.595,3.8-2.595a4.617,4.617,0,0,1,2.568.7,2.194,2.194,0,0,1,1,1.894V12.9a5.655,5.655,0,0,1-1.743-2.3.941.941,0,0,0-1.459-.374C50.334,10.435,48.007,11.921,46.444,12.91Zm5.52,4.343a.912.912,0,0,0-.092.086,2.6,2.6,0,0,1-3.5-.009.968.968,0,0,0-.072-.067,2.6,2.6,0,0,1-.779-1.856v-.947l1.236-.786c.979-.623,1.638-1.046,2.082-1.335a7.646,7.646,0,0,0,1.9,2.112v.957a2.6,2.6,0,0,1-.769,1.846Zm.27,3.656a2.938,2.938,0,0,1-2.109.683,2.877,2.877,0,0,1-2.1-.686l.3-1.392a4.477,4.477,0,0,0,3.613,0ZM25.809,10.28V7.758c0-2.051,2.268-3.124,4.508-3.124a5.353,5.353,0,0,1,3.031.832,2.653,2.653,0,0,1,1.205,2.292V10.3a6.69,6.69,0,0,1-2.271-2.872.943.943,0,0,0-.642-.553.99.99,0,0,0-.226-.027.934.934,0,0,0-.593.21c-.3.225-3.209,2.086-5.013,3.224Zm4.373,5.748a3.112,3.112,0,0,1-2.121-.831c-.019-.019-.038-.037-.058-.054a3.129,3.129,0,0,1-.954-2.251V11.725l1.484-.943c1.221-.777,2.007-1.282,2.516-1.614a8.627,8.627,0,0,0,2.269,2.552v1.171A3.14,3.14,0,0,1,30.182,16.027Zm2.572,3.223a3.35,3.35,0,0,1-2.572.89,3.339,3.339,0,0,1-2.57-.89l.394-1.836a5.011,5.011,0,0,0,4.355,0ZM20.462,25.36a5.511,5.511,0,0,1,5.314-5.573c.514,1.324,2.293,2.236,4.406,2.236s3.894-.912,4.408-2.236A5.511,5.511,0,0,1,39.9,25.36v5.966H37.218V25.754a.943.943,0,1,0-1.884,0v5.571h-10.3V25.754a.943.943,0,1,0-1.884,0v5.571H20.462Zm24.107,7.85a14.417,14.417,0,0,1-28.772,0ZM6.556,12.91V10.937c0-1.9,2.273-2.595,3.8-2.595a4.612,4.612,0,0,1,2.568.7,2.194,2.194,0,0,1,1,1.894V12.9a5.646,5.646,0,0,1-1.742-2.3.942.942,0,0,0-1.459-.374c-.275.206-2.6,1.692-4.164,2.681Zm5.51,4.353a.935.935,0,0,0-.07.067,2.606,2.606,0,0,1-4.365-1.923v-.947l1.235-.786c.98-.623,1.639-1.046,2.083-1.335a7.621,7.621,0,0,0,1.9,2.11v.958a2.6,2.6,0,0,1-.78,1.856Zm.279,3.645a2.877,2.877,0,0,1-2.1.686,2.943,2.943,0,0,1-2.109-.683l.3-1.4a4.473,4.473,0,0,0,3.614,0ZM1.9,26.255a4.668,4.668,0,0,1,4.422-4.718c.511,1.152,2.075,1.94,3.916,1.94s3.4-.787,3.912-1.94a4.668,4.668,0,0,1,4.425,4.718v5.07h-2.09V26.6a.943.943,0,0,0-1.884,0v4.726H5.879V26.6a.943.943,0,0,0-1.884,0v4.726H1.9ZM58.1,36.791,52.672,38.3a.942.942,0,0,0-.649.633A22.941,22.941,0,0,1,50.339,43a.941.941,0,0,0,.012.906l2.773,4.9a28.3,28.3,0,0,1-6.4,6.4l-4.9-2.773a.944.944,0,0,0-.907-.012,22.712,22.712,0,0,1-4.064,1.684.943.943,0,0,0-.632.649l-1.507,5.431a28.571,28.571,0,0,1-9.05,0l-1.507-5.431a.939.939,0,0,0-.634-.649,22.515,22.515,0,0,1-4.062-1.684.941.941,0,0,0-.907.012l-4.905,2.773a28.247,28.247,0,0,1-6.4-6.4l2.773-4.9A.941.941,0,0,0,10.026,43,22.9,22.9,0,0,1,8.342,38.93a.942.942,0,0,0-.649-.633l-5.43-1.507a28.461,28.461,0,0,1-.343-3.581H13.909a16.3,16.3,0,0,0,32.548,0H58.445a28.7,28.7,0,0,1-.343,3.581Zm.361-5.465H56.371V26.6a.943.943,0,0,0-1.884,0v4.726H45.763V26.6a.943.943,0,0,0-1.884,0v4.726h-2.09v-5.07a4.668,4.668,0,0,1,4.425-4.718c.508,1.152,2.07,1.94,3.912,1.94s3.4-.787,3.914-1.94a4.668,4.668,0,0,1,4.423,4.718Z" fill="#231f20"/>
      </g>
    </g>
  </g>
</svg>
