<svg xmlns="http://www.w3.org/2000/svg" xmlns:xlink="http://www.w3.org/1999/xlink" width="108" height="108" viewBox="0 0 108 108">
  <defs>
    <filter id="Path_904820" x="0" y="0" width="108" height="108" filterUnits="userSpaceOnUse">
      <feOffset dy="3" input="SourceAlpha"/>
      <feGaussianBlur stdDeviation="3" result="blur"/>
      <feFlood flood-opacity="0.161"/>
      <feComposite operator="in" in2="blur"/>
      <feComposite in="SourceGraphic"/>
    </filter>
  </defs>
  <g id="Group_1163394" data-name="Group 1163394" transform="translate(-608 -2391)">
    <g id="Group_1163319" data-name="Group 1163319">
      <g id="Group_1163034" data-name="Group 1163034" transform="translate(617 2397)">
        <g id="Group_1160533" data-name="Group 1160533">
          <g id="Icono">
            <g transform="matrix(1, 0, 0, 1, -9, -6)" filter="url(#Path_904820)">
              <g id="Path_904820-2" data-name="Path 904820" transform="translate(9 6)" fill="#edf3fc">
                <path d="M 45 88.5 C 39.12687683105469 88.5 33.43022537231445 87.35007476806641 28.06830024719238 85.08217620849609 C 22.88852500915527 82.89131164550781 18.23629951477051 79.75458526611328 14.2408504486084 75.75914764404297 C 10.24541282653809 71.76370239257812 7.108687400817871 67.11147308349609 4.917825222015381 61.93170166015625 C 2.649924993515015 56.56977462768555 1.5 50.87312316894531 1.5 45 C 1.5 39.12687683105469 2.649924993515015 33.43022537231445 4.917825222015381 28.06830024719238 C 7.108687400817871 22.88852500915527 10.24541282653809 18.23629951477051 14.2408504486084 14.2408504486084 C 18.23629951477051 10.24541282653809 22.88852500915527 7.108687400817871 28.06830024719238 4.917825222015381 C 33.43022537231445 2.649924993515015 39.12687683105469 1.5 45 1.5 C 50.87312316894531 1.5 56.56977462768555 2.649924993515015 61.93170166015625 4.917825222015381 C 67.11147308349609 7.108687400817871 71.76370239257812 10.24541282653809 75.75914764404297 14.2408504486084 C 79.75458526611328 18.23629951477051 82.89131164550781 22.88852500915527 85.08217620849609 28.06830024719238 C 87.35007476806641 33.43022537231445 88.5 39.12687683105469 88.5 45 C 88.5 50.87312316894531 87.35007476806641 56.56977462768555 85.08217620849609 61.93170166015625 C 82.89131164550781 67.11147308349609 79.75458526611328 71.76370239257812 75.75914764404297 75.75914764404297 C 71.76370239257812 79.75458526611328 67.11147308349609 82.89131164550781 61.93170166015625 85.08217620849609 C 56.56977462768555 87.35007476806641 50.87312316894531 88.5 45 88.5 Z" stroke="none"/>
                <path d="M 45 3 C 39.32871246337891 3 33.82865524291992 4.110054016113281 28.65262985229492 6.299339294433594 C 23.65165710449219 8.414573669433594 19.15968322753906 11.44334411621094 15.301513671875 15.301513671875 C 11.44334411621094 19.15968322753906 8.414573669433594 23.65165710449219 6.299339294433594 28.65262985229492 C 4.110054016113281 33.82865524291992 3 39.32871246337891 3 45 C 3 50.67128753662109 4.110054016113281 56.17134475708008 6.299339294433594 61.34737396240234 C 8.414573669433594 66.34834289550781 11.44334411621094 70.84031677246094 15.301513671875 74.698486328125 C 19.15968322753906 78.55665588378906 23.65165710449219 81.58542633056641 28.65262985229492 83.70066070556641 C 33.82865524291992 85.88994598388672 39.32871246337891 87 45 87 C 50.67128753662109 87 56.17134475708008 85.88994598388672 61.34737396240234 83.70066070556641 C 66.34834289550781 81.58542633056641 70.84031677246094 78.55665588378906 74.698486328125 74.698486328125 C 78.55665588378906 70.84031677246094 81.58542633056641 66.34834289550781 83.70066070556641 61.34737396240234 C 85.88994598388672 56.17134475708008 87 50.67128753662109 87 45 C 87 39.32871246337891 85.88994598388672 33.82865524291992 83.70066070556641 28.65262985229492 C 81.58542633056641 23.65165710449219 78.55665588378906 19.15968322753906 74.698486328125 15.301513671875 C 70.84031677246094 11.44334411621094 66.34834289550781 8.414573669433594 61.34737396240234 6.299339294433594 C 56.17134475708008 4.110054016113281 50.67128753662109 3 45 3 M 45 0 C 69.85281372070312 0 90 20.14718627929688 90 45 C 90 69.85281372070312 69.85281372070312 90 45 90 C 20.14718627929688 90 0 69.85281372070312 0 45 C 0 20.14718627929688 20.14718627929688 0 45 0 Z" stroke="none" fill="#2f4f7e"/>
              </g>
            </g>
          </g>
        </g>
      </g>
      <g id="inteligencia-emocional_2_" data-name="inteligencia-emocional (2)" transform="translate(579.923 2407)">
        <g id="Group_1163316" data-name="Group 1163316" transform="translate(56.091 1.014)">
          <path id="Path_998104" data-name="Path 998104" d="M159.426,108.252a17.918,17.918,0,1,0-29.585,13.6,4.5,4.5,0,0,1,1.588,3.408v1.317h20.158V125.27a4.492,4.492,0,0,1,1.576-3.409A17.876,17.876,0,0,0,159.426,108.252Z" transform="translate(-115.342 -79.135)" fill="#ffe751"/>
          <path id="Path_998105" data-name="Path 998105" d="M229.709,272.224H225.23V264.5a7.647,7.647,0,0,0-2.24-5.407v-.811h8.959v.811a7.647,7.647,0,0,0-2.24,5.407Z" transform="translate(-201.303 -224.378)" fill="#63d6fb"/>
          <path id="Path_998106" data-name="Path 998106" d="M246.042,90.334q-.721.005-1.427.067a17.917,17.917,0,0,1,10.1,31.459,4.492,4.492,0,0,0-1.576,3.409v1.305h3.109V125.27a4.492,4.492,0,0,1,1.576-3.409,17.918,17.918,0,0,0-11.783-31.527Z" transform="translate(-220.004 -79.135)" fill="#ffc738"/>
          <g id="Group_1163314" data-name="Group 1163314" transform="translate(12.728 17.918)">
            <path id="Path_998107" data-name="Path 998107" d="M180.72,149.067a.291.291,0,0,1-.041-.238,3.876,3.876,0,0,0,.122-.957,3.92,3.92,0,0,0-3.92-3.92c-.077,0-.153,0-.228.008a.324.324,0,0,1-.245-.091.33.33,0,0,1-.1-.214,3.919,3.919,0,0,0-5.867-3.1.556.556,0,0,1-.561,0,3.918,3.918,0,0,0-5.871,3.158.261.261,0,0,1-.285.248c-.094-.008-.188-.012-.284-.012a3.92,3.92,0,0,0-3.722,5.15,3.92,3.92,0,0,0-3,3.912,3.967,3.967,0,0,0,3.992,3.817H179.6a3.973,3.973,0,0,0,4-3.715,3.92,3.92,0,0,0-2.724-3.938A.289.289,0,0,1,180.72,149.067Z" transform="translate(-156.723 -140.033)" fill="#fea9d7"/>
            <g id="Group_1163313" data-name="Group 1163313" transform="translate(14.126)">
              <path id="Path_998108" data-name="Path 998108" d="M271.231,149.177a.286.286,0,0,1-.192-.348,3.876,3.876,0,0,0,.122-.957,3.92,3.92,0,0,0-3.92-3.92c-.077,0-.153,0-.228.008a.324.324,0,0,1-.245-.091.33.33,0,0,1-.1-.214,3.915,3.915,0,0,0-5.46-3.3,3.921,3.921,0,0,1,2.351,3.3.33.33,0,0,0,.1.214.323.323,0,0,0,.245.091c.075-.005.151-.008.228-.008a3.92,3.92,0,0,1,3.92,3.92,3.876,3.876,0,0,1-.122.957.286.286,0,0,0,.192.348,3.92,3.92,0,0,1,2.726,3.9,3.973,3.973,0,0,1-4,3.755h3.11a3.973,3.973,0,0,0,4-3.755A3.92,3.92,0,0,0,271.231,149.177Z" transform="translate(-261.209 -140.033)" fill="#fe93cd"/>
            </g>
          </g>
          <path id="Path_998109" data-name="Path 998109" d="M206.424,464.131l.312,1.418a3.216,3.216,0,0,0,2.173,2.469,15.43,15.43,0,0,0,8.469,0,3.216,3.216,0,0,0,2.173-2.469l.312-1.418V463H206.424Z" transform="translate(-186.976 -401.418)" fill="#58546a"/>
          <g id="Group_1163315" data-name="Group 1163315" transform="translate(0)">
            <path id="Path_998110" data-name="Path 998110" d="M240.167,14.219h-2.613a.56.56,0,0,1-.552-.468L236.178,8.8a1.12,1.12,0,0,1,1.1-1.3h3.157a1.12,1.12,0,0,1,1.1,1.3l-.825,4.947A.56.56,0,0,1,240.167,14.219Z" transform="translate(-212.694 -7.5)" fill="#ffe751"/>
            <path id="Path_998111" data-name="Path 998111" d="M70.119,104.905l-1.306,2.263a.56.56,0,0,1-.681.244l-4.7-1.76a1.12,1.12,0,0,1-.577-1.609l1.579-2.734a1.12,1.12,0,0,1,1.682-.3l3.872,3.188A.56.56,0,0,1,70.119,104.905Z" transform="translate(-62.69 -88.143)" fill="#ffe751"/>
            <path id="Path_998112" data-name="Path 998112" d="M68.682,295.229l1.306,2.263a.56.56,0,0,1-.129.712l-3.872,3.188a1.12,1.12,0,0,1-1.682-.3l-1.579-2.734a1.12,1.12,0,0,1,.577-1.609l4.7-1.76A.56.56,0,0,1,68.682,295.229Z" transform="translate(-62.576 -256.087)" fill="#ffe751"/>
            <path id="Path_998113" data-name="Path 998113" d="M393.972,297.72l1.306-2.263a.56.56,0,0,1,.681-.244l4.7,1.76a1.12,1.12,0,0,1,.577,1.609l-1.579,2.734a1.12,1.12,0,0,1-1.682.3l-3.872-3.188A.56.56,0,0,1,393.972,297.72Z" transform="translate(-349.104 -256.284)" fill="#ffe751"/>
            <path id="Path_998114" data-name="Path 998114" d="M395.41,107.395l-1.306-2.263a.56.56,0,0,1,.129-.712l3.872-3.188a1.12,1.12,0,0,1,1.682.3l1.579,2.734a1.12,1.12,0,0,1-.577,1.609l-4.7,1.76A.56.56,0,0,1,395.41,107.395Z" transform="translate(-349.218 -88.339)" fill="#ffe751"/>
          </g>
          <path id="Path_998115" data-name="Path 998115" d="M270.482,463v1.071l-.312,1.723a4.084,4.084,0,0,1-1.617,2.724,15.562,15.562,0,0,0,2.554-.5,3.215,3.215,0,0,0,2.173-2.469l.312-1.418V463Z" transform="translate(-240.706 -401.418)" fill="#474457"/>
          <path id="Path_998116" data-name="Path 998116" d="M187.481,355.4H167.17a2.163,2.163,0,0,0-2.163,2.163v2.393a2.163,2.163,0,0,0,2.163,2.163h2.24a2.163,2.163,0,0,0-2.163,2.163v.153a2.159,2.159,0,0,0,.912,1.763.464.464,0,0,1,.2.377v.045a.464.464,0,0,1-.2.377,2.159,2.159,0,0,0-.912,1.763v.153a2.163,2.163,0,0,0,2.163,2.163h15.831a2.163,2.163,0,0,0,2.163-2.163v-.153A2.159,2.159,0,0,0,186.49,367a.461.461,0,0,1-.2-.374v-.047a.46.46,0,0,1,.2-.374,2.159,2.159,0,0,0,.914-1.765v-.154a2.163,2.163,0,0,0-2.163-2.163h2.24a2.163,2.163,0,0,0,2.163-2.163v-2.393A2.163,2.163,0,0,0,187.481,355.4Z" transform="translate(-151.159 -308.365)" fill="#eaebeb"/>
          <path id="Path_998117" data-name="Path 998117" d="M296.082,409.182a2.159,2.159,0,0,0,.914-1.765v-.153a2.163,2.163,0,0,0-2.163-2.163h-3.1a2.163,2.163,0,0,1,2.163,2.163v.153a2.159,2.159,0,0,1-.914,1.765.461.461,0,0,0-.2.374v.047a.46.46,0,0,0,.2.374,2.159,2.159,0,0,1,.914,1.765v.153a2.163,2.163,0,0,1-2.163,2.163h3.1A2.163,2.163,0,0,0,297,411.9v-.153a2.159,2.159,0,0,0-.914-1.765.461.461,0,0,1-.2-.374v-.047A.46.46,0,0,1,296.082,409.182Z" transform="translate(-260.75 -351.346)" fill="#d8dcdc"/>
          <path id="Path_998118" data-name="Path 998118" d="M311.349,355.4H308.24a2.163,2.163,0,0,1,2.163,2.163v2.393a2.163,2.163,0,0,1-2.163,2.163h3.109a2.163,2.163,0,0,0,2.163-2.163v-2.393A2.163,2.163,0,0,0,311.349,355.4Z" transform="translate(-275.027 -308.365)" fill="#d8dcdc"/>
        </g>
        <g id="Group_1163317" data-name="Group 1163317" transform="translate(55.077 0)">
          <path id="Path_998119" data-name="Path 998119" d="M229.517,7.432a1.569,1.569,0,0,0,1.552,1.315h2.613a1.569,1.569,0,0,0,1.552-1.315l.825-4.947A2.134,2.134,0,0,0,233.954,0H230.8a2.134,2.134,0,0,0-2.1,2.485Zm1.2-5.367a.1.1,0,0,1,.081-.037h3.157a.106.106,0,0,1,.1.123L233.3,6.719h-1.844l-.761-4.568a.1.1,0,0,1,.024-.086Z" transform="translate(-205.195 0)"/>
          <path id="Path_998120" data-name="Path 998120" d="M56.593,100.116l4.7,1.76a1.569,1.569,0,0,0,1.915-.687l1.306-2.263h0a1.569,1.569,0,0,0-.363-2l-3.872-3.188a2.134,2.134,0,0,0-3.2.581l-1.579,2.734a2.134,2.134,0,0,0,1.1,3.065Zm.657-2.051,1.579-2.734a.1.1,0,0,1,.073-.051l.021,0a.1.1,0,0,1,.065.024l3.575,2.943-.922,1.6L57.3,98.217a.106.106,0,0,1-.055-.152Z" transform="translate(-55.189 -80.643)"/>
          <path id="Path_998121" data-name="Path 998121" d="M63.074,288.229a1.569,1.569,0,0,0-1.915-.687l-4.7,1.76a2.134,2.134,0,0,0-1.1,3.065l1.579,2.734a2.133,2.133,0,0,0,3.2.581l3.872-3.188a1.569,1.569,0,0,0,.363-2Zm-4.218,5.887a.106.106,0,0,1-.159-.029l-1.579-2.734a.106.106,0,0,1,.055-.152l4.337-1.625.922,1.6Z" transform="translate(-55.077 -248.58)"/>
          <path id="Path_998122" data-name="Path 998122" d="M394.518,289.53l-4.7-1.76a1.569,1.569,0,0,0-1.915.687L386.6,290.72h0a1.569,1.569,0,0,0,.363,2l3.872,3.188a2.133,2.133,0,0,0,3.2-.58l1.579-2.734a2.134,2.134,0,0,0-1.1-3.065Zm-.657,2.051-1.579,2.734a.1.1,0,0,1-.073.051.1.1,0,0,1-.086-.023l-3.575-2.943.922-1.6,4.337,1.625a.106.106,0,0,1,.055.152Z" transform="translate(-341.596 -248.778)"/>
          <path id="Path_998123" data-name="Path 998123" d="M388.037,101.416h0a1.569,1.569,0,0,0,1.915.687l4.7-1.76a2.134,2.134,0,0,0,1.1-3.065l-1.579-2.734a2.134,2.134,0,0,0-3.2-.58l-3.872,3.188a1.569,1.569,0,0,0-.363,2Zm4.217-5.887a.106.106,0,0,1,.159.029l1.579,2.734a.106.106,0,0,1-.055.152l-4.337,1.625-.922-1.6Z" transform="translate(-341.709 -80.839)"/>
          <path id="Path_998124" data-name="Path 998124" d="M147.338,116.145A18.921,18.921,0,0,0,124.282,86.2a1.014,1.014,0,1,0,1.156,1.666,16.895,16.895,0,0,1,20.58,26.741,5.5,5.5,0,0,0-1.929,4.065h-5.812v-5.9a6.584,6.584,0,0,1,1.665-4.393h4.6a4.935,4.935,0,0,0,2.1-9.4,4.934,4.934,0,0,0-4.548-5.495,4.935,4.935,0,0,0-7.071-3.395,4.935,4.935,0,0,0-7.071,3.395,4.94,4.94,0,0,0-4.582,4.921,5.52,5.52,0,0,0,.033.574,4.935,4.935,0,0,0,2.1,9.4h4.6a6.583,6.583,0,0,1,1.665,4.393v5.9h-5.812a5.516,5.516,0,0,0-1.941-4.075,16.862,16.862,0,0,1-1.889-23.723,1.014,1.014,0,0,0-1.548-1.31,18.89,18.89,0,0,0,2.116,26.572,3.486,3.486,0,0,1,1.235,2.638v.039a3.183,3.183,0,0,0-2.24,3.036v2.393a3.182,3.182,0,0,0,2.486,3.1,3.159,3.159,0,0,0-.246,1.226v.153a3.165,3.165,0,0,0,.853,2.163,3.165,3.165,0,0,0-.853,2.163v.153a3.181,3.181,0,0,0,3.177,3.177h.381l.137.622a4.22,4.22,0,0,0,2.886,3.227,16.5,16.5,0,0,0,9.023,0A4.22,4.22,0,0,0,142.421,137l.137-.622h.381a3.181,3.181,0,0,0,3.177-3.177v-.153a3.164,3.164,0,0,0-.853-2.163,3.165,3.165,0,0,0,.853-2.163v-.153a3.16,3.16,0,0,0-.246-1.226,3.182,3.182,0,0,0,2.486-3.1v-2.393a3.183,3.183,0,0,0-2.24-3.036v-.027a3.476,3.476,0,0,1,1.221-2.639Zm-24.739-12.7a2.894,2.894,0,0,1,1.464-2.522,4.932,4.932,0,0,0,9.174-2.517,1.014,1.014,0,1,0-2.028,0,2.905,2.905,0,0,1-5.671.887,3.042,3.042,0,0,1-.14-.887A2.909,2.909,0,0,1,128.3,95.5a2.949,2.949,0,0,1,.417.03,1.014,1.014,0,0,0,1.158-1.014v-.038a2.906,2.906,0,0,1,5.811.007,1.014,1.014,0,0,0,2.028,0,4.905,4.905,0,0,0-.922-2.867,2.9,2.9,0,0,1,3.374,2.858v.04a1.014,1.014,0,0,0,1.158,1.014,2.905,2.905,0,0,1,3.176,3.787,1.014,1.014,0,0,0,.725,1.3,2.906,2.906,0,1,1-3.59,2.824,1.014,1.014,0,1,0-2.028,0,4.906,4.906,0,0,0,.95,2.906H125.5A2.909,2.909,0,0,1,122.6,103.446Zm10.006,4.933h4.837a8.61,8.61,0,0,0-1.193,4.393v5.9H133.8v-5.9A8.609,8.609,0,0,0,132.6,108.379Zm11.484,20.187v.153a1.15,1.15,0,0,1-1.149,1.149H127.108a1.15,1.15,0,0,1-1.149-1.149v-.153a1.15,1.15,0,0,1,1.149-1.149h15.831A1.15,1.15,0,0,1,144.088,128.566Zm0,4.633a1.15,1.15,0,0,1-1.149,1.149h-7.663a1.014,1.014,0,1,0,0,2.028h5.206l-.041.186a2.2,2.2,0,0,1-1.46,1.712,14.472,14.472,0,0,1-7.914,0,2.2,2.2,0,0,1-1.46-1.711l-.041-.186h.978a1.014,1.014,0,1,0,0-2.028h-3.436a1.15,1.15,0,0,1-1.149-1.149v-.153a1.15,1.15,0,0,1,1.149-1.149h15.831a1.15,1.15,0,0,1,1.149,1.149v.153Zm2.24-8.959a1.15,1.15,0,0,1-1.149,1.149H124.868a1.15,1.15,0,0,1-1.149-1.149v-2.393a1.15,1.15,0,0,1,1.149-1.149h20.311a1.15,1.15,0,0,1,1.149,1.149Z" transform="translate(-107.843 -71.635)"/>
        </g>
      </g>
    </g>
  </g>
</svg>
