<svg xmlns="http://www.w3.org/2000/svg" xmlns:xlink="http://www.w3.org/1999/xlink" width="108" height="108" viewBox="0 0 108 108">
  <defs>
    <filter id="Path_982547" x="0" y="0" width="108" height="108" filterUnits="userSpaceOnUse">
      <feOffset dy="3" input="SourceAlpha"/>
      <feGaussianBlur stdDeviation="3" result="blur"/>
      <feFlood flood-opacity="0.161"/>
      <feComposite operator="in" in2="blur"/>
      <feComposite in="SourceGraphic"/>
    </filter>
  </defs>
  <g id="Group_1163383" data-name="Group 1163383" transform="translate(-903 -850)">
    <g id="Group_1163173" data-name="Group 1163173">
      <g id="Group_1159944" data-name="Group 1159944" transform="translate(0 443)">
        <g id="Group_1149837" data-name="Group 1149837" transform="translate(0 -4452)">
          <g id="Group_1149675" data-name="Group 1149675" transform="translate(157 -2821)">
            <g id="Group_1148534" data-name="Group 1148534" transform="translate(156 4253)">
              <g id="Group_1147066" data-name="Group 1147066" transform="translate(-26 -556)">
                <g transform="matrix(1, 0, 0, 1, 616, 3983)" filter="url(#Path_982547)">
                  <g id="Path_982547-2" data-name="Path 982547" transform="translate(9 6)" fill="#f4fdfe">
                    <path d="M 45 88.5 C 39.12687683105469 88.5 33.43022537231445 87.35007476806641 28.06830024719238 85.08217620849609 C 22.88852500915527 82.89131164550781 18.23629951477051 79.75458526611328 14.2408504486084 75.75914764404297 C 10.24541282653809 71.76370239257812 7.108687400817871 67.11147308349609 4.917825222015381 61.93170166015625 C 2.649924993515015 56.56977462768555 1.5 50.87312316894531 1.5 45 C 1.5 39.12687683105469 2.649924993515015 33.43022537231445 4.917825222015381 28.06830024719238 C 7.108687400817871 22.88852500915527 10.24541282653809 18.23629951477051 14.2408504486084 14.2408504486084 C 18.23629951477051 10.24541282653809 22.88852500915527 7.108687400817871 28.06830024719238 4.917825222015381 C 33.43022537231445 2.649924993515015 39.12687683105469 1.5 45 1.5 C 50.87312316894531 1.5 56.56977462768555 2.649924993515015 61.93170166015625 4.917825222015381 C 67.11147308349609 7.108687400817871 71.76370239257812 10.24541282653809 75.75914764404297 14.2408504486084 C 79.75458526611328 18.23629951477051 82.89131164550781 22.88852500915527 85.08217620849609 28.06830024719238 C 87.35007476806641 33.43022537231445 88.5 39.12687683105469 88.5 45 C 88.5 50.87312316894531 87.35007476806641 56.56977462768555 85.08217620849609 61.93170166015625 C 82.89131164550781 67.11147308349609 79.75458526611328 71.76370239257812 75.75914764404297 75.75914764404297 C 71.76370239257812 79.75458526611328 67.11147308349609 82.89131164550781 61.93170166015625 85.08217620849609 C 56.56977462768555 87.35007476806641 50.87312316894531 88.5 45 88.5 Z" stroke="none"/>
                    <path d="M 45 3 C 39.32871246337891 3 33.82865524291992 4.110054016113281 28.65262985229492 6.299339294433594 C 23.65165710449219 8.414573669433594 19.15968322753906 11.44334411621094 15.301513671875 15.301513671875 C 11.44334411621094 19.15968322753906 8.414573669433594 23.65165710449219 6.299339294433594 28.65262985229492 C 4.110054016113281 33.82865524291992 3 39.32871246337891 3 45 C 3 50.67128753662109 4.110054016113281 56.17134475708008 6.299339294433594 61.34737396240234 C 8.414573669433594 66.34834289550781 11.44334411621094 70.84031677246094 15.301513671875 74.698486328125 C 19.15968322753906 78.55665588378906 23.65165710449219 81.58542633056641 28.65262985229492 83.70066070556641 C 33.82865524291992 85.88994598388672 39.32871246337891 87 45 87 C 50.67128753662109 87 56.17134475708008 85.88994598388672 61.34737396240234 83.70066070556641 C 66.34834289550781 81.58542633056641 70.84031677246094 78.55665588378906 74.698486328125 74.698486328125 C 78.55665588378906 70.84031677246094 81.58542633056641 66.34834289550781 83.70066070556641 61.34737396240234 C 85.88994598388672 56.17134475708008 87 50.67128753662109 87 45 C 87 39.32871246337891 85.88994598388672 33.82865524291992 83.70066070556641 28.65262985229492 C 81.58542633056641 23.65165710449219 78.55665588378906 19.15968322753906 74.698486328125 15.301513671875 C 70.84031677246094 11.44334411621094 66.34834289550781 8.414573669433594 61.34737396240234 6.299339294433594 C 56.17134475708008 4.110054016113281 50.67128753662109 3 45 3 M 45 0 C 69.85281372070312 0 90 20.14718627929688 90 45 C 90 69.85281372070312 69.85281372070312 90 45 90 C 20.14718627929688 90 0 69.85281372070312 0 45 C 0 20.14718627929688 20.14718627929688 0 45 0 Z" stroke="none" fill="#56838a"/>
                  </g>
                </g>
              </g>
            </g>
          </g>
        </g>
      </g>
      <g id="inteligencia-emocional" transform="translate(926.5 861.661)">
        <g id="Group_1163172" data-name="Group 1163172" transform="translate(1.152 11.998)">
          <g id="Group_1163160" data-name="Group 1163160" transform="translate(0 6.008)">
            <path id="Path_997760" data-name="Path 997760" d="M21.542,111.308a13.385,13.385,0,0,1,3.034,6.94H46.923c-3.067-6.628-4.753-13.21-2.14-19.438C61.929,58,3.1,62.388,10.873,89.133c-3.435,5.254-8,8.248-1.434,11.455-1.921,1.978-1.829,2.938.086,4.243-.974,1.706-1,2.812,1.487,3.243C7.537,117.512,19.234,112.854,21.542,111.308Z" transform="translate(-6.102 -68.598)" fill="#ffbfa8" fill-rule="evenodd"/>
          </g>
          <g id="Group_1163161" data-name="Group 1163161" transform="translate(22.731 6.013)">
            <path id="Path_997761" data-name="Path 997761" d="M217.108,118.283h2.3c-3.067-6.628-4.753-13.21-2.14-19.438,9.189-21.873-3.442-30.757-15.95-30.181,11.71.556,22.35,9.666,13.7,30.253C212.414,105.123,214.067,111.682,217.108,118.283Z" transform="translate(-201.32 -68.639)" fill="#fcac8f" fill-rule="evenodd"/>
          </g>
          <g id="Group_1163162" data-name="Group 1163162" transform="translate(46.777 21.24)">
            <path id="Path_997762" data-name="Path 997762" d="M412.733,199.416v1.1a2.458,2.458,0,0,1-4.9,0v-1.1Z" transform="translate(-407.831 -199.416)" fill="#6eabc9" fill-rule="evenodd"/>
          </g>
          <g id="Group_1163163" data-name="Group 1163163" transform="translate(48.708 21.24)">
            <path id="Path_997763" data-name="Path 997763" d="M427.387,199.416v1.1a2.375,2.375,0,0,1-2.451,2.276,2.694,2.694,0,0,1-.52-.053,2.33,2.33,0,0,0,1.935-2.223v-1.1Z" transform="translate(-424.416 -199.416)" fill="#65a1bf" fill-rule="evenodd"/>
          </g>
          <g id="Group_1163164" data-name="Group 1163164" transform="translate(44.766 17.958)">
            <path id="Path_997764" data-name="Path 997764" d="M399.483,171.224v2.451a1.22,1.22,0,0,1-1.259,1.169h-6.4a1.221,1.221,0,0,1-1.262-1.169v-2.451Z" transform="translate(-390.562 -171.224)" fill="#a9dbf5" fill-rule="evenodd"/>
          </g>
          <g id="Group_1163165" data-name="Group 1163165" transform="translate(51.48 17.958)">
            <path id="Path_997765" data-name="Path 997765" d="M450.434,171.224v2.451a1.22,1.22,0,0,1-1.259,1.169h-.947a1.221,1.221,0,0,0,1.262-1.169v-2.451Z" transform="translate(-448.228 -171.224)" fill="#88c3e0" fill-rule="evenodd"/>
          </g>
          <g id="Group_1163166" data-name="Group 1163166" transform="translate(40.258 0)">
            <path id="Path_997766" data-name="Path 997766" d="M369.782,25.778c0,5.231-3.432,5.218-3.432,8.434a1,1,0,0,1-1.013.991h-9.047a1,1,0,0,1-1.013-.991c0-3.216-3.432-3.2-3.432-8.434a8.971,8.971,0,0,1,17.938,0Z" transform="translate(-351.844 -17)" fill="#ffd54f" fill-rule="evenodd"/>
          </g>
          <g id="Group_1163167" data-name="Group 1163167" transform="translate(44.703 0)">
            <path id="Path_997767" data-name="Path 997767" d="M394.547,17a8.873,8.873,0,0,1,8.967,8.778c0,5.231-3.432,5.217-3.432,8.434a1,1,0,0,1-1.014.99h-1.037a1,1,0,0,0,1.014-.99c0-3.216,3.432-3.2,3.432-8.434a8.858,8.858,0,0,0-8.45-8.762C394.2,17.009,394.371,17,394.547,17Z" transform="translate(-390.022 -17.002)" fill="#ffc328" fill-rule="evenodd"/>
          </g>
          <g id="Group_1163168" data-name="Group 1163168" transform="translate(7.881 9.64)">
            <path id="Path_997768" data-name="Path 997768" d="M98.224,119.076a5.608,5.608,0,0,0,3.856-9.683l-.275-.262a7.481,7.481,0,0,0,.146-1.335,7.03,7.03,0,0,0-3.246-5.592,14.016,14.016,0,0,0-8.139-2.418,14.812,14.812,0,0,0-6.469,1.421,9.353,9.353,0,0,0-4.151,3.707,3.716,3.716,0,0,1-.361.315,10.588,10.588,0,0,0-4.29,3,6.246,6.246,0,0,0-1.511,3.975c0,6.532,5.045,6.506,10.259,6.479a27.384,27.384,0,0,1,6.973.54c.855.229,2.749,2.09,3.707,2.832a.964.964,0,0,0,1.557-.762V118.8A9.609,9.609,0,0,0,98.224,119.076Z" transform="translate(-73.784 -99.787)" fill="#df646e"/>
          </g>
          <g id="Group_1163169" data-name="Group 1163169" transform="translate(24.072 9.64)">
            <path id="Path_997769" data-name="Path 997769" d="M221.09,119.076a5.608,5.608,0,0,0,3.856-9.683l-.275-.262a7.481,7.481,0,0,0,.146-1.335,7.03,7.03,0,0,0-3.246-5.592,14.017,14.017,0,0,0-8.139-2.418c-.2,0-.394,0-.59.01a13.834,13.834,0,0,1,7.549,2.408,7.03,7.03,0,0,1,3.246,5.592,7.8,7.8,0,0,1-.146,1.335l.275.262a5.613,5.613,0,0,1-3.256,9.653,5.423,5.423,0,0,0,.58.03Z" transform="translate(-212.842 -99.787)" fill="#d82f3c"/>
          </g>
          <g id="Group_1163170" data-name="Group 1163170" transform="translate(17.374 14.108)">
            <path id="Path_997770" data-name="Path 997770" d="M156.312,139.16a3.415,3.415,0,0,1,4.816,0,3.407,3.407,0,0,1,4.82,4.816l-4.82,4.816-4.816-4.816A3.415,3.415,0,0,1,156.312,139.16Z" transform="translate(-155.319 -138.166)" fill="#55d1f5" fill-rule="evenodd"/>
          </g>
          <g id="Group_1163171" data-name="Group 1163171" transform="translate(22.711 14.254)">
            <path id="Path_997771" data-name="Path 997771" d="M205.023,139.418a3.37,3.37,0,0,1,1.421.848,3.415,3.415,0,0,1,0,4.816l-4.82,4.816-.474-.47,4.628-4.628a3.4,3.4,0,0,0-.755-5.383Z" transform="translate(-201.151 -139.418)" fill="#41c4e8" fill-rule="evenodd"/>
          </g>
        </g>
        <path id="Path_997772" data-name="Path 997772" d="M42.647,67.159a.814.814,0,0,1-.738,1.156H19.686a.814.814,0,0,1-.8-.655,13.414,13.414,0,0,0-2.394-6.014c-2.237,1.21-7.983,3.481-10.551,1.459-1.254-.988-1.522-2.712-.8-5.134a2.592,2.592,0,0,1-1.669-1.267,2.714,2.714,0,0,1,.2-2.3A2.938,2.938,0,0,1,2.44,52.466a3.268,3.268,0,0,1,.894-2.295A5.114,5.114,0,0,1,.587,47.108C.121,45.136,1.6,43.2,3.3,40.965c.618-.81,1.255-1.645,1.867-2.555C3.278,31.4,5.695,25.1,11.84,21.08a24.324,24.324,0,0,1,13.206-3.77h.1A20.215,20.215,0,0,1,38.04,21.59a15.618,15.618,0,0,1,5.5,10.3c.633,4.748-.38,10.332-3.012,16.6a16.522,16.522,0,0,0-.646,1.859.814.814,0,1,1-1.566-.441,18.118,18.118,0,0,1,.711-2.046C43.71,36.712,42.989,27.829,37,22.84c-6.036-5.027-16.922-5.206-24.268-.4-3.3,2.158-8.448,7.091-5.895,15.88a.814.814,0,0,1-.1.672c-.705,1.08-1.466,2.077-2.138,2.958-1.457,1.91-2.716,3.56-2.427,4.782.2.835,1.119,1.645,2.818,2.476a.814.814,0,0,1,.226,1.3c-.8.827-1.193,1.432-1.156,1.8.03.3.4.692,1.115,1.185a.814.814,0,0,1,.247,1.075c-.573,1-.523,1.346-.475,1.448.04.084.257.375,1.39.571a.814.814,0,0,1,.625,1.083c-.543,1.474-.986,3.393-.01,4.161,1.774,1.4,7.445-.685,9.266-1.9a.814.814,0,0,1,1.052.126,13.338,13.338,0,0,1,3.082,6.638h20.3A33.128,33.128,0,0,1,37.805,56.9a.814.814,0,0,1,1.618-.173,33.363,33.363,0,0,0,3.223,10.431ZM19.005,32.536a4.214,4.214,0,0,1,0-5.944h0a4.207,4.207,0,0,1,5.365-.481,4.2,4.2,0,0,1,5.365,6.425l-4.79,4.79a.814.814,0,0,1-1.151,0Zm1.151-4.793a2.586,2.586,0,0,0,0,3.642L24.37,35.6l4.214-4.214a2.574,2.574,0,1,0-3.639-3.642.814.814,0,0,1-1.151,0A2.576,2.576,0,0,0,20.156,27.743ZM60,20.879a7.967,7.967,0,0,1-2.2,5.84,3.672,3.672,0,0,0-1.208,2.55,1.8,1.8,0,0,1-1.071,1.637v1.542a2.02,2.02,0,0,1-2,1.973,3.12,3.12,0,0,1-2.436,2.92v12.18A4.985,4.985,0,0,1,46.1,54.5H22.113a4.983,4.983,0,0,1-4.977-4.977V41.34c-2.746-.06-5.353-.4-7.025-2.064a6.945,6.945,0,0,1-1.777-5.185,7.055,7.055,0,0,1,1.686-4.471,11.264,11.264,0,0,1,4.493-3.183l.117-.109c.02-.035.042-.07.063-.1l.015-.025a10.187,10.187,0,0,1,4.34-3.779,15.553,15.553,0,0,1,6.792-1.5,14.728,14.728,0,0,1,8.569,2.558A7.75,7.75,0,0,1,37.975,29.7a6.732,6.732,0,0,1-.087,1.031,6.394,6.394,0,0,1-4.436,11,6.643,6.643,0,0,1-1.117-.1v1.493a1.773,1.773,0,0,1-2.861,1.4c-.3-.233-.683-.565-1.087-.916a12.641,12.641,0,0,0-2.31-1.76,26.782,26.782,0,0,0-6.723-.506l-.591,0v8.17a3.354,3.354,0,0,0,3.35,3.35H46.1a3.355,3.355,0,0,0,3.353-3.35V37.341a3.12,3.12,0,0,1-2.439-2.92,2.021,2.021,0,0,1-2-1.973V30.906a1.8,1.8,0,0,1-1.071-1.637,3.671,3.671,0,0,0-1.208-2.55,7.967,7.967,0,0,1-2.2-5.84,9.735,9.735,0,0,1,19.465,0ZM11.259,38.123c1.4,1.395,3.894,1.584,6.658,1.6l.033,0,.041,0c.445,0,.9,0,1.353,0,.363,0,.729,0,1.094,0a23.978,23.978,0,0,1,6.059.565,9.794,9.794,0,0,1,2.959,2.1c.385.335.749.651,1.016.858a.126.126,0,0,0,.152.015.13.13,0,0,0,.085-.132V41.193a7.1,7.1,0,0,1-3.136-2.586.814.814,0,0,1,1.351-.907,5.473,5.473,0,0,0,2.951,2.188l.1.021a7.225,7.225,0,0,0,1.475.2,4.764,4.764,0,0,0,3.416-8.09,6.485,6.485,0,0,1-2.575.5,9,9,0,0,1-2.487-.363.814.814,0,1,1,.452-1.563,5.944,5.944,0,0,0,4.019-.084,5.162,5.162,0,0,0,.07-.8,6.177,6.177,0,0,0-2.891-4.9,13.1,13.1,0,0,0-7.617-2.251,13.917,13.917,0,0,0-6.077,1.334,8.58,8.58,0,0,0-3.66,3.152c-.9,1.782-.151,4.643,1.112,6.205a.814.814,0,1,1-1.265,1.023A8.876,8.876,0,0,1,14.1,28.423a9.082,9.082,0,0,0-2.818,2.228,5.448,5.448,0,0,0-1.318,3.44,5.437,5.437,0,0,0,1.3,4.031Zm40.63-3.7H48.645a1.642,1.642,0,0,0,3.245,0Zm2-1.977v-1.38H46.645v1.38a.409.409,0,0,0,.441.349h6.364A.412.412,0,0,0,53.889,32.448ZM50.517,29.44l.646-5.916a4.217,4.217,0,0,1-.661.052h-.468a4.223,4.223,0,0,1-.661-.052l.643,5.916Zm7.855-8.561a8.108,8.108,0,0,0-16.21,0,6.409,6.409,0,0,0,1.824,4.793,5.185,5.185,0,0,1,1.589,3.6.189.189,0,0,0,.194.171H48.38l-.718-6.6a4.2,4.2,0,0,1-1.834-3.469.814.814,0,0,1,1.627,0,2.581,2.581,0,0,0,2.579,2.576H50.5a2.579,2.579,0,0,0,2.576-2.576.814.814,0,0,1,1.627,0,4.2,4.2,0,0,1-1.831,3.468l-.721,6.6h2.611a.189.189,0,0,0,.194-.171,5.185,5.185,0,0,1,1.589-3.6,6.409,6.409,0,0,0,1.824-4.793Z" transform="translate(0)"/>
      </g>
    </g>
  </g>
</svg>
