<svg xmlns="http://www.w3.org/2000/svg" xmlns:xlink="http://www.w3.org/1999/xlink" width="108" height="108" viewBox="0 0 108 108">
  <defs>
    <filter id="Path_982547" x="0" y="0" width="108" height="108" filterUnits="userSpaceOnUse">
      <feOffset dy="3" input="SourceAlpha"/>
      <feGaussianBlur stdDeviation="3" result="blur"/>
      <feFlood flood-opacity="0.161"/>
      <feComposite operator="in" in2="blur"/>
      <feComposite in="SourceGraphic"/>
    </filter>
  </defs>
  <g id="Group_1163384" data-name="Group 1163384" transform="translate(-1218 -850)">
    <g id="Group_1163175" data-name="Group 1163175">
      <g id="Group_1159946" data-name="Group 1159946" transform="translate(0 443)">
        <g id="Group_1149838" data-name="Group 1149838" transform="translate(0 -4452)">
          <g id="Group_1149676" data-name="Group 1149676" transform="translate(472 -2821)">
            <g id="Group_1148534" data-name="Group 1148534" transform="translate(156 4253)">
              <g id="Group_1147066" data-name="Group 1147066" transform="translate(-26 -556)">
                <g transform="matrix(1, 0, 0, 1, 616, 3983)" filter="url(#Path_982547)">
                  <g id="Path_982547-2" data-name="Path 982547" transform="translate(9 6)" fill="#f4fdfe">
                    <path d="M 45 88.5 C 39.12687683105469 88.5 33.43022537231445 87.35007476806641 28.06830024719238 85.08217620849609 C 22.88852500915527 82.89131164550781 18.23629951477051 79.75458526611328 14.2408504486084 75.75914764404297 C 10.24541282653809 71.76370239257812 7.108687400817871 67.11147308349609 4.917825222015381 61.93170166015625 C 2.649924993515015 56.56977462768555 1.5 50.87312316894531 1.5 45 C 1.5 39.12687683105469 2.649924993515015 33.43022537231445 4.917825222015381 28.06830024719238 C 7.108687400817871 22.88852500915527 10.24541282653809 18.23629951477051 14.2408504486084 14.2408504486084 C 18.23629951477051 10.24541282653809 22.88852500915527 7.108687400817871 28.06830024719238 4.917825222015381 C 33.43022537231445 2.649924993515015 39.12687683105469 1.5 45 1.5 C 50.87312316894531 1.5 56.56977462768555 2.649924993515015 61.93170166015625 4.917825222015381 C 67.11147308349609 7.108687400817871 71.76370239257812 10.24541282653809 75.75914764404297 14.2408504486084 C 79.75458526611328 18.23629951477051 82.89131164550781 22.88852500915527 85.08217620849609 28.06830024719238 C 87.35007476806641 33.43022537231445 88.5 39.12687683105469 88.5 45 C 88.5 50.87312316894531 87.35007476806641 56.56977462768555 85.08217620849609 61.93170166015625 C 82.89131164550781 67.11147308349609 79.75458526611328 71.76370239257812 75.75914764404297 75.75914764404297 C 71.76370239257812 79.75458526611328 67.11147308349609 82.89131164550781 61.93170166015625 85.08217620849609 C 56.56977462768555 87.35007476806641 50.87312316894531 88.5 45 88.5 Z" stroke="none"/>
                    <path d="M 45 3 C 39.32871246337891 3 33.82865524291992 4.110054016113281 28.65262985229492 6.299339294433594 C 23.65165710449219 8.414573669433594 19.15968322753906 11.44334411621094 15.301513671875 15.301513671875 C 11.44334411621094 19.15968322753906 8.414573669433594 23.65165710449219 6.299339294433594 28.65262985229492 C 4.110054016113281 33.82865524291992 3 39.32871246337891 3 45 C 3 50.67128753662109 4.110054016113281 56.17134475708008 6.299339294433594 61.34737396240234 C 8.414573669433594 66.34834289550781 11.44334411621094 70.84031677246094 15.301513671875 74.698486328125 C 19.15968322753906 78.55665588378906 23.65165710449219 81.58542633056641 28.65262985229492 83.70066070556641 C 33.82865524291992 85.88994598388672 39.32871246337891 87 45 87 C 50.67128753662109 87 56.17134475708008 85.88994598388672 61.34737396240234 83.70066070556641 C 66.34834289550781 81.58542633056641 70.84031677246094 78.55665588378906 74.698486328125 74.698486328125 C 78.55665588378906 70.84031677246094 81.58542633056641 66.34834289550781 83.70066070556641 61.34737396240234 C 85.88994598388672 56.17134475708008 87 50.67128753662109 87 45 C 87 39.32871246337891 85.88994598388672 33.82865524291992 83.70066070556641 28.65262985229492 C 81.58542633056641 23.65165710449219 78.55665588378906 19.15968322753906 74.698486328125 15.301513671875 C 70.84031677246094 11.44334411621094 66.34834289550781 8.414573669433594 61.34737396240234 6.299339294433594 C 56.17134475708008 4.110054016113281 50.67128753662109 3 45 3 M 45 0 C 69.85281372070312 0 90 20.14718627929688 90 45 C 90 69.85281372070312 69.85281372070312 90 45 90 C 20.14718627929688 90 0 69.85281372070312 0 45 C 0 20.14718627929688 20.14718627929688 0 45 0 Z" stroke="none" fill="#56838a"/>
                  </g>
                </g>
              </g>
            </g>
          </g>
        </g>
      </g>
      <g id="Layer_33" data-name="Layer 33" transform="translate(1246 876)">
        <path id="Path_997773" data-name="Path 997773" d="M43.644,1a9.644,9.644,0,0,1,9.644,9.644V24.307a6.43,6.43,0,0,1-6.43,6.43H40.43A6.43,6.43,0,0,1,34,24.307V10.644A9.644,9.644,0,0,1,43.644,1Z" transform="translate(-6.675 -0.196)" fill="#c67a60"/>
        <path id="Path_997774" data-name="Path 997774" d="M28.325,41.064V57.111H4.215A3.215,3.215,0,0,1,1,53.9V41.064a6.43,6.43,0,0,1,4.662-6.182L12.252,33h4.822l6.59,1.882A6.43,6.43,0,0,1,28.325,41.064Z" transform="translate(-0.196 -6.478)" fill="#62b5e8"/>
        <path id="Path_997775" data-name="Path 997775" d="M3.411,53.9V41.064a6.43,6.43,0,0,1,4.662-6.182L14.663,33H12.252l-6.59,1.882A6.43,6.43,0,0,0,1,41.064V53.9a3.215,3.215,0,0,0,3.215,3.215H6.626A3.215,3.215,0,0,1,3.411,53.9Z" transform="translate(-0.196 -6.478)" fill="#44a7d8"/>
        <path id="Path_997776" data-name="Path 997776" d="M36.411,24.306V10.643A9.639,9.639,0,0,1,44.849,1.08,9.586,9.586,0,0,0,34,10.643V24.306a6.43,6.43,0,0,0,6.43,6.43h2.411A6.43,6.43,0,0,1,36.411,24.306Z" transform="translate(-6.674 -0.195)" fill="#b26049"/>
        <path id="Path_997777" data-name="Path 997777" d="M56.325,41.064V53.9a3.215,3.215,0,0,1-3.215,3.215H29V41.064a6.43,6.43,0,0,1,4.662-6.182L40.252,33h4.822l6.59,1.882A6.43,6.43,0,0,1,56.325,41.064Z" transform="translate(-5.693 -6.478)" fill="#f2a7b1"/>
        <path id="Path_997778" data-name="Path 997778" d="M43,28h4.822v4.018a2.411,2.411,0,0,1-4.822,0Z" transform="translate(-8.441 -5.497)" fill="#ffddb0" stroke="#000" stroke-linecap="round" stroke-linejoin="round" stroke-width="2"/>
        <path id="Path_997779" data-name="Path 997779" d="M9,11H23.466v8.841A7.233,7.233,0,1,1,9,19.841Z" transform="translate(-1.767 -2.159)" fill="#f7d1c6"/>
        <path id="Path_997780" data-name="Path 997780" d="M23.189,24.265,21.22,22.7a3.215,3.215,0,0,0-2-.7H13.429a3.215,3.215,0,0,0-2,.7L9.456,24.265a7.233,7.233,0,0,0,13.733,0Z" transform="translate(-1.856 -4.319)" fill="#c67a60"/>
        <path id="Path_997781" data-name="Path 997781" d="M8.411,15v4.822a2.411,2.411,0,0,1,0-4.822Z" transform="translate(-1.178 -2.945)" fill="#f4b19f"/>
        <path id="Path_997782" data-name="Path 997782" d="M2.411,0V4.822A2.411,2.411,0,1,1,2.411,0Z" transform="translate(24.111 16.878) rotate(180)" fill="#f7d1c6"/>
        <path id="Path_997783" data-name="Path 997783" d="M44.233,27.074A7.233,7.233,0,0,1,37,19.841V14.215h3.215a6.43,6.43,0,0,0,5.144-2.572L45.841,11l.482.643a6.43,6.43,0,0,0,5.144,2.572v5.626A7.233,7.233,0,0,1,44.233,27.074Z" transform="translate(-7.263 -2.159)" fill="#f7d1c6"/>
        <path id="Path_997784" data-name="Path 997784" d="M11.411,19.841V11H9v8.841a7.194,7.194,0,0,0,8.439,7.125,7.229,7.229,0,0,1-6.028-7.125Z" transform="translate(-1.767 -2.159)" fill="#f4b19f"/>
        <path id="Path_997785" data-name="Path 997785" d="M36.411,15v4.822a2.411,2.411,0,0,1,0-4.822Z" transform="translate(-6.675 -2.945)" fill="#f4b19f"/>
        <path id="Path_997786" data-name="Path 997786" d="M2.411,0V4.822A2.411,2.411,0,1,1,2.411,0Z" transform="translate(46.614 16.878) rotate(180)" fill="#f7d1c6"/>
        <path id="Path_997787" data-name="Path 997787" d="M20.466,3.4V2.607A1.607,1.607,0,0,0,18.859,1H12.682A6.682,6.682,0,0,0,6,7.682a4.57,4.57,0,0,0,4.57,4.57,14.466,14.466,0,0,0,9.037-3.17l.056-.045a3.215,3.215,0,0,0,3.215,3.215V5.009A1.607,1.607,0,0,0,21.27,3.4Z" transform="translate(-1.178 -0.196)" fill="#c67a60"/>
        <path id="Path_997788" data-name="Path 997788" d="M57,49.012h4.822v8.027a3.215,3.215,0,0,1-3.215,3.215H57Z" transform="translate(-11.19 -9.622)" fill="#f7d1c6"/>
        <path id="Path_997789" data-name="Path 997789" d="M20.435,53.031H12.4a6.43,6.43,0,0,0-6.43,6.43v1.582h20.9V59.461A6.43,6.43,0,0,0,20.435,53.031Z" transform="translate(-1.172 -10.41)" fill="#f96464"/>
        <path id="Path_997790" data-name="Path 997790" d="M17,53h3.215v.8A1.607,1.607,0,1,1,17,53.8Z" transform="translate(-3.337 -10.404)" fill="#f7d1c6"/>
        <path id="Path_997791" data-name="Path 997791" d="M11,37H23.859v6.43A6.43,6.43,0,0,1,11,43.43Z" transform="translate(-2.159 -7.263)" fill="#f7d1c6"/>
        <path id="Path_997792" data-name="Path 997792" d="M13.411,43.43V37H11v6.43a6.417,6.417,0,0,0,7.635,6.313A6.43,6.43,0,0,1,13.411,43.43Z" transform="translate(-2.159 -7.263)" fill="#f4b19f"/>
        <path id="Path_997793" data-name="Path 997793" d="M17.529,29.282a7.474,7.474,0,0,1-1.206.1A7.212,7.212,0,0,1,9.46,24.42l1.969-1.567a.482.482,0,0,1,.1-.072,7.223,7.223,0,0,0,6,6.5Z" transform="translate(-1.857 -4.472)" fill="#b26049"/>
        <path id="Path_997794" data-name="Path 997794" d="M9.607,41h.8v3.215h-.8a1.607,1.607,0,1,1,0-3.215Z" transform="translate(-1.57 -8.049)" fill="#f4b19f"/>
        <path id="Path_997795" data-name="Path 997795" d="M1.607,0h.8V3.215h-.8A1.607,1.607,0,1,1,1.607,0Z" transform="translate(24.111 36.194) rotate(180)" fill="#f7d1c6"/>
        <path id="Path_997796" data-name="Path 997796" d="M23.859,38.644h-3.49a3.215,3.215,0,0,1-2.274-.942l-.665-.665-.665.665a3.215,3.215,0,0,1-2.274.942H11V35.43a6.43,6.43,0,1,1,12.859,0Z" transform="translate(-2.159 -5.693)" fill="#c67a60"/>
        <path id="Path_997797" data-name="Path 997797" d="M18.635,29.117A6.417,6.417,0,0,0,11,35.43v3.215h2.411V35.43a6.43,6.43,0,0,1,5.224-6.313Z" transform="translate(-2.159 -5.693)" fill="#b26049"/>
        <path id="Path_997798" data-name="Path 997798" d="M50.681,43H34.607L33,51.037H52.289Z" transform="translate(-6.478 -8.441)" fill="#c67a60"/>
        <path id="Path_997799" data-name="Path 997799" d="M37,37H49.859v6.43A6.43,6.43,0,0,1,37,43.43Z" transform="translate(-7.263 -7.263)" fill="#f7d1c6"/>
        <g id="Group_1163174" data-name="Group 1163174" transform="translate(27.325 12.055)">
          <path id="Path_997800" data-name="Path 997800" d="M39.411,43.43V37H37v6.43a6.417,6.417,0,0,0,7.635,6.313A6.43,6.43,0,0,1,39.411,43.43Z" transform="translate(-34.589 -19.319)" fill="#f4b19f"/>
          <path id="Path_997801" data-name="Path 997801" d="M35.607,41h.8v3.215h-.8a1.607,1.607,0,1,1,0-3.215Z" transform="translate(-34 -20.104)" fill="#f4b19f"/>
          <path id="Path_997802" data-name="Path 997802" d="M39.411,20.626V15H37v5.626a7.194,7.194,0,0,0,8.439,7.125,7.229,7.229,0,0,1-6.028-7.125Z" transform="translate(-34.589 -15)" fill="#f4b19f"/>
        </g>
        <path id="Path_997803" data-name="Path 997803" d="M1.607,0h.8V3.215h-.8A1.607,1.607,0,0,1,1.607,0Z" transform="translate(45.007 36.194) rotate(180)" fill="#f7d1c6"/>
        <path id="Path_997804" data-name="Path 997804" d="M49.466,38.644H46.252l-1.607-1.607-1.607,1.607h-6.43A1.607,1.607,0,0,1,35,37.037a8.037,8.037,0,0,1,16.074,0A1.607,1.607,0,0,1,49.466,38.644Z" transform="translate(-6.871 -5.693)" fill="#c67a60"/>
        <path id="Path_997805" data-name="Path 997805" d="M37.411,37.037A8.031,8.031,0,0,1,44.242,29.1,7.979,7.979,0,0,0,35,37.037a1.607,1.607,0,0,0,1.607,1.607h2.411A1.607,1.607,0,0,1,37.411,37.037Z" transform="translate(-6.871 -5.693)" fill="#b26049"/>
        <path id="Path_997806" data-name="Path 997806" d="M10.825,59.018V57.411A2.411,2.411,0,0,0,8.414,55c-.085,0-.166.017-.25.025a6.409,6.409,0,0,0-2.147,4.129,2.406,2.406,0,0,0,4.808-.135Z" transform="translate(-1.181 -10.797)" fill="#d34444"/>
        <path id="Path_997807" data-name="Path 997807" d="M46.435,53.031H38.4a6.43,6.43,0,0,0-6.43,6.43v1.582h20.9V59.461A6.43,6.43,0,0,0,46.435,53.031Z" transform="translate(-6.276 -10.41)" fill="#fcab68"/>
        <path id="Path_997808" data-name="Path 997808" d="M40.81,53.031H38.4a6.43,6.43,0,0,0-6.43,6.43v1.582H34.38V59.461A6.43,6.43,0,0,1,40.81,53.031Z" transform="translate(-6.276 -10.41)" fill="#ea8e49"/>
        <path id="Path_997809" data-name="Path 997809" d="M43,53h3.215v.8A1.607,1.607,0,1,1,43,53.8Z" transform="translate(-8.441 -10.404)" fill="#f7d1c6"/>
        <rect id="Rectangle_409845" data-name="Rectangle 409845" width="5" height="7" rx="2.5" transform="translate(3 44)" fill="#f7d1c6"/>
        <path id="Path_997810" data-name="Path 997810" d="M5.69,59.018V57.411A2.4,2.4,0,0,1,7.3,55.148a2.384,2.384,0,0,0-.8-.148,2.411,2.411,0,0,0-2.411,2.411v1.607A2.411,2.411,0,0,0,6.494,61.43a2.384,2.384,0,0,0,.8-.148A2.4,2.4,0,0,1,5.69,59.018Z" transform="translate(-0.802 -10.797)" fill="#f4b19f"/>
        <rect id="Rectangle_409846" data-name="Rectangle 409846" width="5" height="7" rx="2.5" transform="translate(43 44)" fill="#f7d1c6"/>
        <path id="Path_997811" data-name="Path 997811" d="M8.411,7.682A6.682,6.682,0,0,1,15.093,1H12.682A6.682,6.682,0,0,0,6,7.682a4.57,4.57,0,0,0,4.57,4.57,14.421,14.421,0,0,0,1.516-.089A4.57,4.57,0,0,1,8.411,7.682Z" transform="translate(-1.178 -0.196)" fill="#b26049"/>
        <path id="Path_997812" data-name="Path 997812" d="M55.607,59.018V57.411a2.4,2.4,0,0,1,1.607-2.263,2.38,2.38,0,0,0-.8-.148A2.411,2.411,0,0,0,54,57.411v1.607a2.411,2.411,0,0,0,2.411,2.411,2.381,2.381,0,0,0,.8-.148,2.4,2.4,0,0,1-1.607-2.263Z" transform="translate(-10.601 -10.797)" fill="#f4b19f"/>
        <path id="Path_997813" data-name="Path 997813" d="M40.8,17a.8.8,0,0,0-.8.8v.764a.8.8,0,0,0,1.607,0V17.8A.8.8,0,0,0,40.8,17Z" transform="translate(-7.852 -3.337)"/>
        <path id="Path_997814" data-name="Path 997814" d="M50.8,19.411a.8.8,0,0,0,.8-.8v-.8A.8.8,0,1,0,50,17.8v.8A.8.8,0,0,0,50.8,19.411Z" transform="translate(-9.815 -3.337)"/>
        <path id="Path_997815" data-name="Path 997815" d="M46.45,25.235a1.234,1.234,0,0,1-2.078,0,.8.8,0,1,0-1.137,1.137,2.8,2.8,0,0,0,4.351,0,.8.8,0,1,0-1.136-1.137Z" transform="translate(-8.441 -4.908)"/>
        <path id="Path_997816" data-name="Path 997816" d="M12.8,19.411a.8.8,0,0,0,.8-.8v-.8A.8.8,0,1,0,12,17.8v.8A.8.8,0,0,0,12.8,19.411Z" transform="translate(-2.356 -3.337)"/>
        <path id="Path_997817" data-name="Path 997817" d="M22.8,19.411a.8.8,0,0,0,.8-.8v-.8A.8.8,0,1,0,22,17.8v.8A.8.8,0,0,0,22.8,19.411Z" transform="translate(-4.319 -3.337)"/>
        <path id="Path_997818" data-name="Path 997818" d="M19.587,25.235a.8.8,0,0,0-1.136,0,1.234,1.234,0,0,1-2.078,0,.8.8,0,1,0-1.137,1.137,3.1,3.1,0,0,0,2.176,1.039,3.1,3.1,0,0,0,2.176-1.038.8.8,0,0,0,0-1.138Z" transform="translate(-2.945 -4.908)"/>
        <path id="Path_997819" data-name="Path 997819" d="M46.453,27.718a7.255,7.255,0,0,0,.964-3.607V10.448a10.448,10.448,0,1,0-20.9,0V24.111a7.263,7.263,0,0,0,.972,3.617,7.2,7.2,0,0,0-1.768.858,7.177,7.177,0,0,0-2.037-.951l-1.668-.48a7.257,7.257,0,0,0-2.484-3.248A8.076,8.076,0,0,0,22.5,17.681v-.114a3.2,3.2,0,0,0,0-6.2V4.813A2.411,2.411,0,0,0,20.092,2.4,2.411,2.411,0,0,0,17.681,0H11.5A7.494,7.494,0,0,0,4.018,7.486a5.36,5.36,0,0,0,1.873,4.068,3.2,3.2,0,0,0,.538,6.013v.114a8.022,8.022,0,0,0,3.831,6.85,7.265,7.265,0,0,0-1.513,2.1l-3.5,1A7.263,7.263,0,0,0,0,34.586V47.418a4.023,4.023,0,0,0,4.018,4.018h43.4a4.023,4.023,0,0,0,4.018-4.018V34.586A7.261,7.261,0,0,0,46.453,27.718Zm3.375,6.868v4h-4l-.515-2.577a2.385,2.385,0,0,0-.628-3.483,2.385,2.385,0,0,0,.322-1.182,8.79,8.79,0,0,0-.361-2.482l1.1.315a5.649,5.649,0,0,1,4.08,5.409ZM47.418,48.221a1.607,1.607,0,1,1-3.215,0V46.614a1.607,1.607,0,1,1,3.215,0ZM24.111,43.685V36.343a2.372,2.372,0,0,0,.235-3.321,5.6,5.6,0,0,1,3.2-3.612,8.813,8.813,0,0,0-.219,1.934,2.385,2.385,0,0,0,.321,1.182,2.385,2.385,0,0,0-.628,3.484l-1.28,6.43a.8.8,0,0,0,.788.964h1.084A7.281,7.281,0,0,0,25.7,45.77a7.268,7.268,0,0,0-1.586-2.085ZM7.233,34.559a.8.8,0,0,1,.8-.8v1.607A.8.8,0,0,1,7.233,34.559Zm2.411-.8h2.687a3.991,3.991,0,0,0,2.841-1.177l.1-.1.1.1a3.991,3.991,0,0,0,2.841,1.177H20.9v2.411a5.626,5.626,0,1,1-11.252,0Zm13.663.8a.8.8,0,0,1-.8.8V33.755A.8.8,0,0,1,23.307,34.559ZM16.074,43.4a.8.8,0,0,1-1.607,0Zm6.382-6.43H22.5v5.6a7.153,7.153,0,0,0-2.733-.755,7.225,7.225,0,0,0,2.685-4.849Zm5.673-19.735a3.187,3.187,0,0,0,.8.333v.114a7.976,7.976,0,0,0,2.761,6.049,8.9,8.9,0,0,0-2.974,2.864,5.566,5.566,0,0,1-.592-2.484ZM45.81,14.466a1.607,1.607,0,0,1-.8,1.391V13.075A1.607,1.607,0,0,1,45.81,14.466Zm0,2.768v6.876a5.546,5.546,0,0,1-.976,3.134l-1-.287A8.892,8.892,0,0,0,41.5,24.311a8.074,8.074,0,0,0,3.507-6.63v-.114a3.187,3.187,0,0,0,.8-.333ZM44.83,41.792H40.7a7.229,7.229,0,0,0,2.652-4.822H43.4a2.451,2.451,0,0,0,.457-.046Zm-8.664-8.037a.8.8,0,0,0,.568-.235l1.039-1.039,1.039,1.039a.8.8,0,0,0,.568.235h2.411v2.411a5.626,5.626,0,1,1-11.252,0V33.755ZM43.4,35.362V33.755a.8.8,0,1,1,0,1.607Zm-14.466,0a.8.8,0,1,1,0-1.607Zm-.455,1.562a2.418,2.418,0,0,0,.455.046h.047a7.229,7.229,0,0,0,2.652,4.822H27.508ZM42.6,32.148H39.714l-1.372-1.372a.8.8,0,0,0-1.136,0l-1.372,1.372h-6.1a.8.8,0,0,1-.8-.8,7.233,7.233,0,1,1,14.466,0A.8.8,0,0,1,42.6,32.148Zm.8-15.27v.8a6.45,6.45,0,0,1-3.456,5.684,8.722,8.722,0,0,0-6.607-.391,6.383,6.383,0,0,1-2.8-5.293V12.859h2.411a7.269,7.269,0,0,0,5.626-2.688A7.273,7.273,0,0,0,43.4,12.813Zm-14.466-1.02a1.607,1.607,0,0,1,0-2.782ZM36.97,43.4a.8.8,0,0,1-1.607,0Zm8.037,0v.114c-.039.01-.076.024-.114.035-.058-.049-.112-.1-.17-.149ZM36.97,1.607a8.851,8.851,0,0,1,8.841,8.841V11.7a3.182,3.182,0,0,0-1.607-.447A5.654,5.654,0,0,1,39.7,9l-.482-.643a.833.833,0,0,0-1.286,0L37.452,9a5.654,5.654,0,0,1-4.5,2.25H29.737a3.182,3.182,0,0,0-1.607.447V10.448A8.851,8.851,0,0,1,36.97,1.607ZM23.245,29.174a5.626,5.626,0,0,1,1.184.5,7.2,7.2,0,0,0-1.513,2.516,2.416,2.416,0,0,0-.413-.039V29.737a7.436,7.436,0,0,0-.044-.784ZM8.037,12.679a5.35,5.35,0,0,0,1.355.18,15.336,15.336,0,0,0,8.541-2.618A4.03,4.03,0,0,0,20.9,12.768s-.019,5.48-.057,5.758l-.976-.776a4.034,4.034,0,0,0-2.5-.873H11.573a4.034,4.034,0,0,0-2.5.873l-.97.772c-.04-.278-.066-5.843-.066-5.843Zm15.27,1.787a1.607,1.607,0,0,1-.8,1.391V13.075A1.607,1.607,0,0,1,23.307,14.466ZM11.5,1.607h6.177a.8.8,0,0,1,.8.8v.794a.8.8,0,0,0,.8.8h.8a.8.8,0,0,1,.8.8v6.3a2.416,2.416,0,0,1-1.607-2.274.8.8,0,0,0-.482-.7.86.86,0,0,0-.878.12,13.715,13.715,0,0,1-8.537,2.994A3.77,3.77,0,0,1,5.626,7.486,5.885,5.885,0,0,1,11.5,1.607ZM5.626,14.466a1.607,1.607,0,0,1,.8-1.391v2.782A1.607,1.607,0,0,1,5.626,14.466ZM8.565,20.2l1.505-1.2a2.411,2.411,0,0,1,1.5-.524H17.36a2.418,2.418,0,0,1,1.5.524l1.506,1.2a6.454,6.454,0,0,1-2.374,2.835,7.177,7.177,0,0,0-6.311.422A6.4,6.4,0,0,1,8.565,20.2Zm6.705,3.906A5.632,5.632,0,0,1,20.9,29.737v2.411H18.209a2.427,2.427,0,0,1-1.7-.706l-.666-.666a.8.8,0,0,0-1.136,0l-.666.666a2.427,2.427,0,0,1-1.7.706H9.644V29.737a5.632,5.632,0,0,1,5.626-5.626ZM1.607,47.418V34.586a5.649,5.649,0,0,1,4.08-5.412l2.467-.7a7.2,7.2,0,0,0-.118,1.267v2.411a2.411,2.411,0,0,0,0,4.822h.047a7.233,7.233,0,0,0,2.68,4.845A7.169,7.169,0,0,0,6.52,43.542c-.031-.009-.059-.02-.091-.028v-5.74a.8.8,0,1,0-1.607,0v5.74a3.215,3.215,0,0,0-2.411,3.1v1.607a3.187,3.187,0,0,0,.227,1.168,2.411,2.411,0,0,1-1.031-1.971Zm2.411.8V46.614a1.607,1.607,0,1,1,3.215,0v1.607a1.607,1.607,0,1,1-3.215,0Zm20.863,1.607H8.394a3.182,3.182,0,0,0,.447-1.607V46.614a3.192,3.192,0,0,0-.863-2.176A5.579,5.579,0,0,1,11.219,43.4h1.64a2.411,2.411,0,1,0,4.822,0h1.574a5.642,5.642,0,0,1,5.626,5.645Zm1.64-.8A5.632,5.632,0,0,1,32.148,43.4h1.607a2.411,2.411,0,1,0,4.822,0h1.607a5.593,5.593,0,0,1,3.265,1.052,3.194,3.194,0,0,0-.854,2.163v1.607a3.182,3.182,0,0,0,.447,1.607H26.522Zm23.307-1.607A2.411,2.411,0,0,1,48.8,49.389a3.188,3.188,0,0,0,.227-1.168V46.614a3.215,3.215,0,0,0-2.411-3.1V40.194h3.215Z"/>
        <path id="Path_997820" data-name="Path 997820" d="M14.8,45.258a.8.8,0,0,0,.8-.8V43.8A.8.8,0,1,0,14,43.8v.65A.8.8,0,0,0,14.8,45.258Z" transform="translate(-2.748 -8.441)"/>
        <path id="Path_997821" data-name="Path 997821" d="M22.8,45.258a.8.8,0,0,0,.8-.8V43.8A.8.8,0,1,0,22,43.8v.65A.8.8,0,0,0,22.8,45.258Z" transform="translate(-4.319 -8.441)"/>
        <path id="Path_997822" data-name="Path 997822" d="M16.235,49.372a3.1,3.1,0,0,0,2.176,1.039,3.1,3.1,0,0,0,2.176-1.038.8.8,0,1,0-1.137-1.137,1.234,1.234,0,0,1-2.078,0,.8.8,0,1,0-1.136,1.137Z" transform="translate(-3.141 -9.423)"/>
        <path id="Path_997823" data-name="Path 997823" d="M40.8,45.258a.8.8,0,0,0,.8-.8V43.8A.8.8,0,0,0,40,43.8v.65A.8.8,0,0,0,40.8,45.258Z" transform="translate(-7.852 -8.441)"/>
        <path id="Path_997824" data-name="Path 997824" d="M48.8,45.258a.8.8,0,0,0,.8-.8V43.8A.8.8,0,0,0,48,43.8v.65A.8.8,0,0,0,48.8,45.258Z" transform="translate(-9.423 -8.441)"/>
        <path id="Path_997825" data-name="Path 997825" d="M42.235,49.372a2.8,2.8,0,0,0,4.351,0,.8.8,0,1,0-1.137-1.137,1.234,1.234,0,0,1-2.078,0,.8.8,0,1,0-1.136,1.137Z" transform="translate(-8.245 -9.423)"/>
      </g>
    </g>
  </g>
</svg>
