<svg xmlns="http://www.w3.org/2000/svg" xmlns:xlink="http://www.w3.org/1999/xlink" width="108" height="108" viewBox="0 0 108 108">
  <defs>
    <filter id="Path_904820" x="0" y="0" width="108" height="108" filterUnits="userSpaceOnUse">
      <feOffset dy="3" input="SourceAlpha"/>
      <feGaussianBlur stdDeviation="3" result="blur"/>
      <feFlood flood-opacity="0.161"/>
      <feComposite operator="in" in2="blur"/>
      <feComposite in="SourceGraphic"/>
    </filter>
  </defs>
  <g id="Group_1163437" data-name="Group 1163437" transform="translate(-160 -8401)">
    <g id="Group_1163360" data-name="Group 1163360">
      <g id="Group_1163154" data-name="Group 1163154" transform="translate(0 6455)">
        <g id="Group_1160531" data-name="Group 1160531" transform="translate(169 1952)">
          <g id="Icono">
            <g transform="matrix(1, 0, 0, 1, -9, -6)" filter="url(#Path_904820)">
              <g id="Path_904820-2" data-name="Path 904820" transform="translate(9 6)" fill="#edf3fc">
                <path d="M 45 88.5 C 39.12687683105469 88.5 33.43022537231445 87.35007476806641 28.06830024719238 85.08217620849609 C 22.88852500915527 82.89131164550781 18.23629951477051 79.75458526611328 14.2408504486084 75.75914764404297 C 10.24541282653809 71.76370239257812 7.108687400817871 67.11147308349609 4.917825222015381 61.93170166015625 C 2.649924993515015 56.56977462768555 1.5 50.87312316894531 1.5 45 C 1.5 39.12687683105469 2.649924993515015 33.43022537231445 4.917825222015381 28.06830024719238 C 7.108687400817871 22.88852500915527 10.24541282653809 18.23629951477051 14.2408504486084 14.2408504486084 C 18.23629951477051 10.24541282653809 22.88852500915527 7.108687400817871 28.06830024719238 4.917825222015381 C 33.43022537231445 2.649924993515015 39.12687683105469 1.5 45 1.5 C 50.87312316894531 1.5 56.56977462768555 2.649924993515015 61.93170166015625 4.917825222015381 C 67.11147308349609 7.108687400817871 71.76370239257812 10.24541282653809 75.75914764404297 14.2408504486084 C 79.75458526611328 18.23629951477051 82.89131164550781 22.88852500915527 85.08217620849609 28.06830024719238 C 87.35007476806641 33.43022537231445 88.5 39.12687683105469 88.5 45 C 88.5 50.87312316894531 87.35007476806641 56.56977462768555 85.08217620849609 61.93170166015625 C 82.89131164550781 67.11147308349609 79.75458526611328 71.76370239257812 75.75914764404297 75.75914764404297 C 71.76370239257812 79.75458526611328 67.11147308349609 82.89131164550781 61.93170166015625 85.08217620849609 C 56.56977462768555 87.35007476806641 50.87312316894531 88.5 45 88.5 Z" stroke="none"/>
                <path d="M 45 3 C 39.32871246337891 3 33.82865524291992 4.110054016113281 28.65262985229492 6.299339294433594 C 23.65165710449219 8.414573669433594 19.15968322753906 11.44334411621094 15.301513671875 15.301513671875 C 11.44334411621094 19.15968322753906 8.414573669433594 23.65165710449219 6.299339294433594 28.65262985229492 C 4.110054016113281 33.82865524291992 3 39.32871246337891 3 45 C 3 50.67128753662109 4.110054016113281 56.17134475708008 6.299339294433594 61.34737396240234 C 8.414573669433594 66.34834289550781 11.44334411621094 70.84031677246094 15.301513671875 74.698486328125 C 19.15968322753906 78.55665588378906 23.65165710449219 81.58542633056641 28.65262985229492 83.70066070556641 C 33.82865524291992 85.88994598388672 39.32871246337891 87 45 87 C 50.67128753662109 87 56.17134475708008 85.88994598388672 61.34737396240234 83.70066070556641 C 66.34834289550781 81.58542633056641 70.84031677246094 78.55665588378906 74.698486328125 74.698486328125 C 78.55665588378906 70.84031677246094 81.58542633056641 66.34834289550781 83.70066070556641 61.34737396240234 C 85.88994598388672 56.17134475708008 87 50.67128753662109 87 45 C 87 39.32871246337891 85.88994598388672 33.82865524291992 83.70066070556641 28.65262985229492 C 81.58542633056641 23.65165710449219 78.55665588378906 19.15968322753906 74.698486328125 15.301513671875 C 70.84031677246094 11.44334411621094 66.34834289550781 8.414573669433594 61.34737396240234 6.299339294433594 C 56.17134475708008 4.110054016113281 50.67128753662109 3 45 3 M 45 0 C 69.85281372070312 0 90 20.14718627929688 90 45 C 90 69.85281372070312 69.85281372070312 90 45 90 C 20.14718627929688 90 0 69.85281372070312 0 45 C 0 20.14718627929688 20.14718627929688 0 45 0 Z" stroke="none" fill="#5692e8"/>
              </g>
            </g>
          </g>
        </g>
      </g>
      <g id="inteligencia-emocional_4_" data-name="inteligencia-emocional (4)" transform="translate(159.124 8413.004)">
        <g id="Group_1163359" data-name="Group 1163359" transform="translate(27.864 14.74)">
          <g id="Group_1163355" data-name="Group 1163355" transform="translate(0 35.377)">
            <path id="Path_998332" data-name="Path 998332" d="M58.642,355.467l8.321-4.821c1.562-.9,3.149-1.546,4.866-.989a58.5,58.5,0,0,0,8.225,2.528,2.311,2.311,0,0,1,1.6,2.769,2.237,2.237,0,0,1-2.769,1.6l1.114.178a5.187,5.187,0,0,0,3.566-.621l8-4.66c6.219-3.622,7.132,1.95,5.064,3.223l-14.518,8.94a5.323,5.323,0,0,1-4.311.608L67.269,361.4l-3.9,2.252a1.575,1.575,0,0,1-2.147-.575l-3.153-5.462a1.575,1.575,0,0,1,.574-2.146Z" transform="translate(-55.025 -349.449)" fill="#f6dccd" fill-rule="evenodd"/>
            <path id="Path_998333" data-name="Path 998333" d="M58.642,355.467l8.321-4.821c1.562-.9,3.149-1.546,4.866-.989,1.024.332,2.394.868,3.936,1.382l-16.118,9.306-1.577-2.732A1.575,1.575,0,0,1,58.642,355.467Z" transform="translate(-55.025 -349.449)" fill="#f1cbbc" fill-rule="evenodd"/>
            <path id="Path_998334" data-name="Path 998334" d="M39.335,372.707l6.6,11.66a1.181,1.181,0,0,1-.445,1.605l-2.245,1.27a1.181,1.181,0,0,1-1.605-.445l-6.6-11.66a1.181,1.181,0,0,1,.445-1.605l2.245-1.27A1.182,1.182,0,0,1,39.335,372.707Z" transform="translate(-34.889 -369.314)" fill="#d1d1d6" fill-rule="evenodd"/>
            <path id="Path_998335" data-name="Path 998335" d="M64.655,380.718l1.168,2.064,1.155,2.041a1.181,1.181,0,0,1-.441,1.6l.8-.454a1.181,1.181,0,0,0,.445-1.605l-1.159-2.048L64.3,378.208l-2.33-4.116-.783-1.384a1.182,1.182,0,0,0-1.372-.545l1.356,2.4L63.5,378.67l1.159,2.048Z" transform="translate(-56.738 -369.315)" fill="#b1b1b5" fill-rule="evenodd"/>
          </g>
          <g id="Group_1163356" data-name="Group 1163356" transform="translate(20.483 0.227)">
            <path id="Path_998336" data-name="Path 998336" d="M262.848,308.17h5.591v2.844a1.7,1.7,0,0,1-1.7,1.7h-2.2a1.7,1.7,0,0,1-1.7-1.7Z" transform="translate(-255.21 -278.112)" fill="#b1b1b5" fill-rule="evenodd"/>
            <path id="Path_998337" data-name="Path 998337" d="M248.752,274.978h9.069v3.547a1.7,1.7,0,0,1-1.7,1.7h-5.678a1.7,1.7,0,0,1-1.7-1.7Z" transform="translate(-242.853 -249.015)" fill="#d1d1d6" fill-rule="evenodd"/>
            <path id="Path_998338" data-name="Path 998338" d="M294.21,270.8v4.062a1.7,1.7,0,0,1-1.7,1.7h1.975a1.7,1.7,0,0,0,1.7-1.7V270.8C295.54,270.82,294.859,270.8,294.21,270.8Z" transform="translate(-281.217 -245.351)" fill="#b1b1b5" fill-rule="evenodd"/>
            <path id="Path_998339" data-name="Path 998339" d="M235.008,248.77h12.46v3.389a1.7,1.7,0,0,1-1.7,1.7H236.7a1.7,1.7,0,0,1-1.7-1.7Z" transform="translate(-230.804 -226.04)" fill="#eceff1" fill-rule="evenodd"/>
            <path id="Path_998340" data-name="Path 998340" d="M307.954,262.5v1.7a1.7,1.7,0,0,1-1.7,1.7h2.031a1.7,1.7,0,0,0,1.639-1.695v-1.7Z" transform="translate(-293.266 -238.073)" fill="#d1d1d6" fill-rule="evenodd"/>
            <path id="Path_998341" data-name="Path 998341" d="M211.364,64.51A10.434,10.434,0,0,1,221.8,74.944c0,5.795-3.7,5.448-4.2,13.99h-12.46c-.5-8.542-4.2-8.2-4.2-13.99A10.434,10.434,0,0,1,211.364,64.51Z" transform="translate(-200.93 -64.51)" fill="#ffe177" fill-rule="evenodd"/>
            <path id="Path_998342" data-name="Path 998342" d="M277.505,64.556a10.435,10.435,0,0,1,9.446,10.388c0,5.383-3.194,5.467-4.051,12.3-.066.523-.118,1.086-.153,1.693h1.975c.5-8.541,4.2-8.2,4.2-13.99A10.434,10.434,0,0,0,278.492,64.51Q277.993,64.51,277.505,64.556Z" transform="translate(-268.059 -64.51)" fill="#ffd064" fill-rule="evenodd"/>
          </g>
          <path id="Path_998343" data-name="Path 998343" d="M350.5,76.464c-2.844-1.671-8.077-5.506-8.147-9.332-.078-4.26,4.71-6.192,8.312-2.529,3.6-3.662,8.389-1.731,8.312,2.528-.069,3.827-5.3,7.662-8.147,9.333a.318.318,0,0,1-.33,0Z" transform="translate(-304.419 -62.669)" fill="#fe646f" fill-rule="evenodd"/>
          <g id="Group_1163358" data-name="Group 1163358" transform="translate(8.45 11.921)">
            <circle id="Ellipse_12532" data-name="Ellipse 12532" cx="8.856" cy="8.856" r="8.856" fill="#6cf5c2"/>
            <path id="Path_998344" data-name="Path 998344" d="M170.79,159.309a8.856,8.856,0,0,1,0,17.712c-.207,0-.413-.008-.617-.022a8.856,8.856,0,0,0,0-17.668c.2-.014.409-.022.617-.022Z" transform="translate(-161.934 -159.309)" fill="#00e499" fill-rule="evenodd"/>
            <g id="Group_1163357" data-name="Group 1163357" transform="translate(4.191 5.621)">
              <path id="Path_998345" data-name="Path 998345" d="M194.128,204.875a1.24,1.24,0,1,1-.877.363A1.236,1.236,0,0,1,194.128,204.875Z" transform="translate(-186.038 -204.875)" fill="#eceff1" fill-rule="evenodd"/>
              <path id="Path_998346" data-name="Path 998346" d="M138.6,204.875a1.24,1.24,0,1,1-.877.363A1.236,1.236,0,0,1,138.6,204.875Z" transform="translate(-137.359 -204.875)" fill="#eceff1" fill-rule="evenodd"/>
            </g>
          </g>
        </g>
        <path id="Path_998347" data-name="Path 998347" d="M74.105,27.484A26.525,26.525,0,0,1,69.957,24.4a.981.981,0,0,0-.159-.148c-1.72-1.624-2.988-3.418-3.019-5.067a3.157,3.157,0,0,1,3.175-3.458A4.97,4.97,0,0,1,73.4,17.366a.987.987,0,0,0,1.408,0c1.445-1.47,3.253-2,4.716-1.387a3.234,3.234,0,0,1,1.906,3.206c-.051,2.889-3.9,6.224-7.325,8.3Zm-12.537-.568V25.478a1.438,1.438,0,1,1,1.438,1.438Zm5.087,3.6a8.713,8.713,0,0,0,1.571-5.028c-1.822-1.768-3.377-3.949-3.421-6.263a6.273,6.273,0,0,1,.068-1.037A9.445,9.445,0,0,0,49.334,25.4a10.242,10.242,0,0,0,.07,1.232A9.84,9.84,0,0,1,54.579,38.4h1.412V28.889H54.554a3.411,3.411,0,1,1,3.411-3.412v1.438h1.629V25.478a3.412,3.412,0,1,1,3.412,3.412H61.568V38.4H64.1a16.8,16.8,0,0,1,2.56-7.893ZM59.881,48.578h-2.2a.71.71,0,0,1-.71-.709V47.16h3.619v.708A.71.71,0,0,1,59.881,48.578Zm1.738-3.392H55.94a.71.71,0,0,1-.708-.709v-.708h7.1v.708A.71.71,0,0,1,61.619,45.186Zm2.4-4.808v.71a.71.71,0,0,1-.708.708H54.246a.709.709,0,0,1-.708-.708v-.395c.063-.1.125-.208.185-.315ZM59.594,38.4H57.965V28.889h1.629Zm-3.6-11.488H54.554a1.438,1.438,0,1,1,1.437-1.438ZM45.169,43.386a7.869,7.869,0,1,1,7.869-7.869A7.878,7.878,0,0,1,45.169,43.386ZM80.29,14.159a6.045,6.045,0,0,0-6.184,1.182,6.047,6.047,0,0,0-6.185-1.182,4.937,4.937,0,0,0-2.356,2.058A11.417,11.417,0,0,0,47.36,25.4c0,.179,0,.354.01.526a9.843,9.843,0,1,0,4.647,16.651,2.7,2.7,0,0,0,1.242,1v.9A2.69,2.69,0,0,0,55,46.989v.88a2.687,2.687,0,0,0,2.684,2.682h2.2a2.685,2.685,0,0,0,2.682-2.682v-.88a2.69,2.69,0,0,0,1.74-2.512v-.9A2.687,2.687,0,0,0,66,41.087V39.424a15.108,15.108,0,0,1,2.362-7.916A11.131,11.131,0,0,0,70.089,27.1a30.982,30.982,0,0,0,3.351,2.285h0a1.3,1.3,0,0,0,1.33,0c2-1.177,8.548-5.389,8.634-10.165a5.213,5.213,0,0,0-3.115-5.062Zm-38.8,19.364a.247.247,0,0,0,.074.179.25.25,0,0,0,.179.074A.255.255,0,0,0,42,33.523a.243.243,0,0,0-.075-.179.239.239,0,0,0-.177-.074.254.254,0,0,0-.253.253ZM43.318,35.1a2.226,2.226,0,1,0-1.574.653A2.209,2.209,0,0,0,43.318,35.1ZM48.773,33.7a.25.25,0,0,0,.075-.179.253.253,0,1,0-.506,0,.253.253,0,0,0,.431.179Zm1.4-1.754a2.227,2.227,0,1,1-1.574-.651,2.218,2.218,0,0,1,1.574.651Zm-1.181,6.386a.987.987,0,0,1-.082,1.393,5.627,5.627,0,0,1-7.473,0,.987.987,0,1,1,1.311-1.476,3.654,3.654,0,0,0,4.852,0,.984.984,0,0,1,1.392.082ZM65.795,13.055l1.229-2.128a.987.987,0,1,1,1.71.987L67.5,14.042a.987.987,0,0,1-1.71-.987ZM42.166,17.587a.988.988,0,0,1,1.348-.361l2.129,1.228a.987.987,0,1,1-.987,1.71l-2.129-1.228A.988.988,0,0,1,42.166,17.587Zm6.661-5.674a.986.986,0,1,1,1.709-.987l1.229,2.128a.987.987,0,0,1-1.709.987Zm8.966-.473V8.983a.987.987,0,0,1,1.974,0V11.44a.987.987,0,0,1-1.974,0ZM31.707,55.931a.8.8,0,1,1-.91-.678.8.8,0,0,1,.91.678ZM68.949,54.5l-14.52,8.94a4.355,4.355,0,0,1-3.538.495L40.359,61.117a.986.986,0,0,0-.749.1L38.252,62l-3.687-6.515,5.728-3.316c1.749-1.012,2.927-1.275,4.067-.9.483.156,1.041.358,1.688.592a41.894,41.894,0,0,0,6.594,1.955,1.315,1.315,0,0,1,.9,1.556c-.185.688-.7.989-1.542.9-1.162-.24-2.272-.556-3.447-.892-.563-.161-1.145-.327-1.744-.488a.987.987,0,0,0-.51,1.907c.584.157,1.157.321,1.713.479,1.227.351,2.385.681,3.638.938l.018,0,.02.005,1,.161a6.145,6.145,0,0,0,4.22-.743l8-4.661c2.123-1.236,3.8-1.413,4.366-.461a1.6,1.6,0,0,1-.314,1.992ZM38.068,65.8a.186.186,0,0,0-.017-.145l-6.6-11.662a.179.179,0,0,0-.116-.088.175.175,0,0,0-.053-.009.179.179,0,0,0-.091.025l-2.245,1.271a.18.18,0,0,0-.088.115.185.185,0,0,0,.016.145l6.6,11.661a.193.193,0,0,0,.26.072l2.245-1.269A.187.187,0,0,0,38.068,65.8Zm25.837-14.53-8,4.659a4.455,4.455,0,0,1-.565.279q.059-.159.1-.327a3.308,3.308,0,0,0-2.247-3.963,1.219,1.219,0,0,0-.13-.032A39.792,39.792,0,0,1,46.719,50c-.637-.229-1.236-.447-1.75-.613-2.151-.7-4.072.152-5.666,1.075l-5.71,3.306-.423-.749a2.171,2.171,0,0,0-2.951-.818l-2.245,1.271a2.171,2.171,0,0,0-.818,2.951l6.6,11.662A2.159,2.159,0,0,0,35.062,69.1a2.217,2.217,0,0,0,.584.08,2.139,2.139,0,0,0,1.06-.281l2.246-1.271a2.171,2.171,0,0,0,.818-2.951l-.545-.963,1.019-.589L50.38,65.845a6.778,6.778,0,0,0,1.754.237,6.3,6.3,0,0,0,3.33-.957l14.52-8.941a3.554,3.554,0,0,0,.973-4.686c-.451-.755-2.3-3-7.053-.23Z" fill="#242222" fill-rule="evenodd"/>
      </g>
    </g>
  </g>
</svg>
